<?xml version="1.0" encoding="utf-8"?>
<!-- Generator: Adobe Adobe Illustrator 24.2.0, SVG Export Plug-In . SVG Version: 6.00 Build 0)  -->
<svg version="1.1" id="Layer_1" xmlns="http://www.w3.org/2000/svg" xmlns:xlink="http://www.w3.org/1999/xlink" x="0px" y="0px"
	 width="867px" height="252px" viewBox="0 0 867 252" style="enable-background:new 0 0 867 252;" xml:space="preserve">
<style type="text/css">
	.st0{fill:#EFE8E7;}
	.st1{fill:#1C1B1A;}
	.st2{fill:#181717;}
	.st3{fill:#0B0B0A;}
	.st4{fill:#F6F6F5;}
	.st5{fill:#C5C3BF;}
	.st6{fill:#9F9D99;}
	.st7{fill:#A2A09D;}
	.st8{fill:#C3C0BB;}
	.st9{fill:#A9A8A3;}
	.st10{fill:#B4B1AC;}
	.st11{fill:#868586;}
	.st12{fill:#8D8C8D;}
	.st13{fill:#C3C3C3;}
	.st14{fill:#F7F6F6;}
	.st15{fill:#858585;}
	.st16{fill:#FCFCFB;}
	.st17{fill:#808080;}
	.st18{fill:#C4C4C4;}
	.st19{fill:#C3C4C4;}
	.st20{fill:#090908;}
	.st21{fill:#F22C33;}
	.st22{fill:#F7B31F;}
	.st23{fill:#0C0B0B;}
	.st24{fill:#A43095;}
	.st25{fill:#F9761C;}
	.st26{fill:#060605;}
	.st27{fill:#2E9DC8;}
	.st28{fill:#C0C0C0;}
	.st29{fill:#100F0F;}
	.st30{fill:#41B744;}
	.st31{fill:#131212;}
	.st32{fill:#B0B0AF;}
	.st33{fill:#0AAA45;}
	.st34{fill:#2B2B2A;}
	.st35{fill:#BFB9B8;}
	.st36{fill:#1D9EAE;}
	.st37{fill:#6E6E6E;}
	.st38{fill:#090808;}
	.st39{fill:#B8B8B7;}
	.st40{fill:#BEC4C0;}
	.st41{fill:#FA2913;}
	.st42{fill:#E8CBC8;}
	.st43{fill:#F72E1D;}
</style>
<g>
	<path class="st0" d="M856.51,3.51c0,0,0.5,0,0.75,0c0.25,36.83,0.25,73.67,0.25,110.75c0,0.25-0.5,0.25-0.75,0
		C856.51,77.18,856.51,40.34,856.51,3.51z"/>
	<path class="st1" d="M561.51,3.51c1.83,0,3.67,0,5.5,0c0.71,4.2,0.97,97.29,0.3,111c-89.75,0-179.53,0-269.55-0.25
		c-0.25-1.7-0.25-3.14-0.25-4.19c1.38-1.3,3.34,0.6,4.25-1.56c0.25,0,0.75,0,1,0c0.75,0,1.25,0,2,0c83.75,0,167.25,0,251,0
		c1.75,0,3.25,0,5,0c0.42-0.33,0.58-0.67,0.75-1.25c0-32.75,0-65.25,0-98C561.51,7.18,561.51,5.34,561.51,3.51z"/>
	<path class="st1" d="M276.51,3.51c1.5,0,3,0,4.5,0c0.71,4.2,0.97,97.3,0.3,111c-89.75,0-179.53,0-269.55-0.25
		c-0.25-1.75-0.25-3.25,0-4.75c1.03,0,1.81,0,2.59,0c0.68,0,1.22-0.15,1.41-1c0.25,0,0.75,0,1,0c0.75,0,1.25,0,2,0
		c83.75,0,167.25,0,251,0c1.75,0,3.25,0,5,0c0.42-0.33,0.58-0.67,0.75-1.25c0-32.75,0-65.25,0-98c0-1.75,0-3.25,0.25-4.75
		C276.18,4.18,276.34,3.84,276.51,3.51z"/>
	<path class="st2" d="M856.26,3.51c0.25,36.83,0.25,73.67,0.25,110.75c-89.83,0.25-179.67,0.25-269.75,0
		c-0.25-1.42-0.25-2.58-0.25-4c0-0.25,0-0.75,0.25-0.75c0.42-0.33,0.58-0.67,1-1c1.08,0,1.92,0,3,0c0.25,0,0.75,0,1,0
		c86.32,0,172.39,0,258.75,0c0-33.14,0-66.07,0-99.25c0-0.25,0-0.75,0.25-0.75c1.21-1.23,0.56-2.67,0.75-4.25c0-0.25,0-0.75,0-0.75
		C853.01,3.51,854.51,3.51,856.26,3.51z"/>
	<path class="st3" d="M702.51,138.51c1.91,8.8,0.88,17.71,0.95,26.57c0.16,20.32,0.05,40.64,0.05,60.96c0,3.83-0.09,7.66,0.03,11.49
		c0.1,3.58-1.95,6.91-0.96,10.31c-0.69,1.16-2.45-0.01-2.31,1.67c-84.37,0-168.48,0-252.6-0.03c-1.55,0-3.2,0.54-4.68-0.84
		c-0.54-0.5-2.29-0.54-2.83-0.06c-1.94,1.74-4.13,0.55-6.4,0.67c-0.14-2.09-0.51-3.98,0.03-5.75c0.76,0,1.24,0,1.97,0
		c0.75,0,1.25,0,2,0c86.65,0,173.05,0,259.75,0c0-33.47,0-66.73,0-100.25c0-1.42,0-2.58,0.25-3.75
		C699.2,137.77,701,138.77,702.51,138.51z"/>
	<path class="st3" d="M417.51,138.51c0,34.49,0,68.98,0.01,103.46c0,2.26,0.14,4.51-1.49,6.54c-10.56,0-21.27-0.78-31.83,0.19
		c-14.55,1.34-29.06,0.52-43.59,0.76c-14.82,0.25-29.66,0.05-44.48,0.05c-14.66,0-29.32,0-43.98,0c-14.83,0-29.66,0-44.48,0
		c-14.66,0-29.32,0.03-43.98-0.03c-2.38-0.01-4.86,0.62-7.12-0.91c-0.57-0.39-1.96-0.41-2.4,0c-1.9,1.8-4.12,0.57-6.39,0.69
		c-0.25-2.08-0.25-3.92,0-5.75c1.42,0,2.58,0,4,0c86.65,0,173.05,0,259.75,0c0-33.47,0-66.73,0.25-100c1.58-1.46-0.08-3.55,1.25-5
		C414.54,138.51,416.02,138.51,417.51,138.51z"/>
	<path class="st4" d="M561.26,3.51c0.25,1.83,0.25,3.67,0,5.75c-1.42,0.25-2.58,0.25-4,0.25c-85.32,0-170.38,0-255.75,0
		c0,31.47,0,62.73,0,94.25c0,1.42,0,2.58,0,4c0,0.25,0,0.75-0.25,0.75c-1.71,0-3.16,0-4.75,0c0-35.23,0-70.11,0.25-105
		c88.08,0,175.92,0,263.75,0C560.51,3.51,561.01,3.51,561.26,3.51z"/>
	<path class="st5" d="M276.51,3.26c-0.17,0.58-0.33,0.92-1,1.25c-88.67,0-176.83,0-265-0.25c-0.33-0.42-0.67-0.58-1-0.75
		C9.4,2.88,9.78,2.55,10.3,2.53c1.5-0.05,3-0.02,4.5-0.02c85.47,0,170.95-0.01,256.42,0.04C272.97,2.55,274.83,1.92,276.51,3.26z"/>
	<path class="st6" d="M147.51,243.51c0,1.83,0,3.67,0,5.75c-0.5,0.25-1,0.25-1.5,0.25c-0.78-4.63-1.07-90.71-0.36-112
		c1.42,0,2.88,0,4.33,0c87.58,0,175.16,0,262.74,0.03c1.59,0,3.28-0.53,4.79,0.72c-1.49,0.25-2.97,0.25-4.5,0.25
		c-1.32,1.45,0.33,3.54-1.25,4.75c-0.25-1.71-0.25-3.17-0.25-4.51c-88.56,0-176.77,0-265,0c0,7.23,0,14.22,0,21.22
		c0,26.15,0,52.31,0,78.46C146.51,240.18,146.18,242.01,147.51,243.51z"/>
	<path class="st7" d="M702.51,138.26c-1.51,0.52-3.31-0.49-4.75,1c-1.59-1.2-3.11-0.73-4.54-0.73c-85.79-0.03-171.59-0.03-257.38,0
		c-1.1,0-2.32-0.5-3.18,0.31c0,34.58,0,69.02,0,103.31c0.9,0.89,2.63-0.57,2.85,1.35c-0.48,0-0.96,0-1.72,0
		c-0.55,1.77-0.17,3.66-0.28,5.75c-0.5,0.25-1,0.25-1.5,0.25c-0.78-4.63-1.07-90.67-0.36-112c1.42,0,2.88,0,4.33,0
		c87.25,0,174.49,0,261.74,0.03C699.31,137.53,701,137.01,702.51,138.26z"/>
	<path class="st5" d="M585.51,3.51c-0.11-0.63,0.27-0.96,0.79-0.98c1.5-0.05,3-0.02,4.5-0.02c84.81,0,169.61-0.01,254.42,0.04
		c1.75,0,3.61-0.63,5.04,0.71C764.7,3.51,679.4,3.51,594.09,3.51c-1.5,0-3.03,0.18-4.49-0.05c-1.59-0.25-2.53,1.52-4.09,0.8
		C585.51,4.01,585.51,3.51,585.51,3.51z"/>
	<path class="st8" d="M560.51,3.26c-87.83,0.25-175.67,0.25-264,0.25c-0.5,0-1,0-1,0c-0.11-0.63,0.27-0.96,0.79-0.98
		c1.5-0.05,3-0.02,4.5-0.02c84.81,0,169.61-0.01,254.42,0.04C556.97,2.55,558.83,1.92,560.51,3.26z"/>
	<path class="st9" d="M295.51,3.76c0-0.25,0.5-0.25,0.75-0.25c0.25,34.89,0.25,69.77,0.25,105c1.59,0,3.04,0,4.75,0
		c-0.41,2.16-2.37,0.26-3.75,1.56c0,1.04,0,2.49,0,4.19c-0.5,0.25-1,0.25-1.51,0.25c-0.11-0.11-0.24-0.22-0.33-0.35
		c-0.08-0.13-0.15-0.29-0.15-0.43C295.51,77.15,295.51,40.58,295.51,3.76z"/>
	<path class="st9" d="M9.51,3.76c0.33-0.08,0.67,0.08,1,0.75c0,33.24,0,65.98,0,98.72c0,1.5-0.03,2.99,0.02,4.49
		c0.02,0.52,0.35,0.9,0.98,1.04c0,0.25,0,0.75,0,0.75c0,1.5,0,3,0,4.75c-0.5,0.25-1,0.25-1.51,0.25c-0.11-0.11-0.24-0.22-0.33-0.35
		c-0.08-0.13-0.15-0.29-0.15-0.43C9.51,77.15,9.51,40.58,9.51,3.76z"/>
	<path class="st10" d="M585.26,3.51c0.25,0,0.25,0.5,0.25,1c0,33.24,0,65.98,0,98.72c0,1.5-0.03,2.99,0.02,4.49
		c0.02,0.52,0.35,0.9,0.98,1.04c0,0.25,0,0.75,0,0.75s0,0.5-0.25,0.75c-1.21,1.48-0.56,2.92-0.75,4.25
		c-0.63,0.11-0.96-0.27-0.98-0.79c-0.06-1.16-0.02-2.33-0.02-3.5c0-34.14-0.01-68.28,0.02-102.42
		C584.54,6.37,584.06,4.85,585.26,3.51z"/>
	<path class="st5" d="M585.76,114.51c-0.06-1.33-0.71-2.77,0.5-4c0.25,1.17,0.25,2.33,0.25,3.75
		C586.51,114.51,586.01,114.51,585.76,114.51z"/>
	<path class="st5" d="M851.26,3.51c0.25,0,0.25,0.5,0,0.75s-0.75,0.25-0.75,0s0-0.75,0-0.75S851.01,3.51,851.26,3.51z"/>
	<path class="st11" d="M301.51,107.51c0-1.17,0-2.33,0.25-3.75c85.32-0.25,170.38-0.25,255.75-0.25c0-31.47,0-62.73,0-94
		c1.17,0,2.33,0,3.75,0c0.25,32.5,0.25,65,0,97.75c-0.42,0.58-0.58,0.92-0.75,1.25c-1.5,0-3,0-4.75-0.25
		c-1.93-1.34-3.79-0.71-5.54-0.71c-80.14-0.04-160.28-0.04-240.42-0.04c-1.5,0-3-0.03-4.5,0.02c-0.52,0.02-0.91,0.35-0.79,0.98
		c-0.5,0-1,0-1.75-0.25C302.18,107.84,301.84,107.68,301.51,107.51z"/>
	<path class="st12" d="M304.76,108.51c-0.36-0.63,0.02-0.96,0.54-0.98c1.5-0.05,3-0.02,4.5-0.02c80.14,0,160.28-0.01,240.42,0.04
		c1.75,0,3.61-0.63,5.29,0.71C472.01,108.51,388.51,108.51,304.76,108.51z"/>
	<path class="st13" d="M301.51,107.76c0.33-0.08,0.67,0.08,1,0.5c0,0.25-0.5,0.25-0.75,0.25S301.51,108.01,301.51,107.76z"/>
	<path class="st12" d="M560.76,108.51c-0.08-0.33,0.08-0.67,0.5-1C561.34,107.84,561.18,108.18,560.76,108.51z"/>
	<path class="st14" d="M11.51,108.51c-0.63,0.11-0.96-0.27-0.98-0.79c-0.05-1.49-0.02-2.99-0.02-4.49c0-32.74,0-65.48,0-98.47
		c88.17-0.25,176.33-0.25,264.75-0.25c0.25,1.5,0.25,3,0,4.75c-1.42,0.25-2.58,0.25-4,0.25c-84.98,0-169.72,0-254.75,0
		c0,31.47,0,62.73,0,94.25c0,1.42,0,2.58-0.25,3.75c-0.42,0.33-0.58,0.67-1,1C13.84,108.51,12.68,108.51,11.51,108.51z"/>
	<path class="st11" d="M16.51,107.51c0-1.17,0-2.33,0.25-3.75c84.98-0.25,169.72-0.25,254.75-0.25c0-31.47,0-62.73,0-94
		c1.17,0,2.33,0,3.75,0c0.25,32.5,0.25,65,0,97.75c-0.42,0.58-0.58,0.92-0.75,1.25c-1.5,0-3,0-4.75-0.25
		c-1.93-1.34-3.79-0.71-5.54-0.71c-80.14-0.04-160.28-0.04-240.42-0.04c-1.5,0-3-0.03-4.5,0.02c-0.52,0.02-0.91,0.35-0.79,0.98
		c-0.5,0-1,0-1.75-0.25C16.51,108.01,16.51,107.51,16.51,107.51z"/>
	<path class="st12" d="M18.76,108.51c-0.36-0.63,0.02-0.96,0.54-0.98c1.5-0.05,3-0.02,4.5-0.02c80.14,0,160.28-0.01,240.42,0.04
		c1.75,0,3.61-0.63,5.29,0.71C186.01,108.51,102.51,108.51,18.76,108.51z"/>
	<path class="st5" d="M11.51,108.76c1.17-0.25,2.33-0.25,3.75-0.25c0.31,0.85-0.23,1.01-0.91,1c-0.78-0.01-1.56,0-2.59,0
		C11.51,109.51,11.51,109.01,11.51,108.76z"/>
	<path class="st13" d="M16.26,107.51c0.25,0,0.25,0.5,0.25,0.75s-0.5,0.25-0.75,0.25C15.68,108.18,15.84,107.84,16.26,107.51z"/>
	<path class="st12" d="M274.76,108.51c-0.08-0.33,0.08-0.67,0.5-1C275.34,107.84,275.18,108.18,274.76,108.51z"/>
	<path class="st14" d="M850.26,3.51c0.25,0,0.25,0.5,0.25,1c0,1.67,0,2.83,0,4c0,0,0,0.5-0.25,0.75c-1.42,0.25-2.58,0.25-4,0.25
		s-2.58,0-4,0c-83.65,0-167.05,0-250.75,0c0,31.47,0,62.73,0,94.25c0,1.42,0,2.58-0.25,3.75c-0.42,0.33-0.58,0.67-0.75,1
		c-0.83,0-1.67,0-3,0c-0.5,0-1,0-1,0c-0.63,0.11-0.96-0.27-0.98-0.79c-0.05-1.49-0.02-2.99-0.02-4.49c0-32.74,0-65.48,0-98.47
		c1.56,0.22,2.5-1.55,4.09-1.3c1.46,0.23,2.99,0.05,4.49,0.05C679.4,3.51,764.7,3.51,850.26,3.51z"/>
	<path class="st15" d="M591.51,107.51c0-1.17,0-2.33,0.25-3.75c0.75-0.25,1.25-0.25,2-0.25c84.32,0,168.39,0,252.75,0
		c0-31.47,0-62.73,0-94c1.17,0,2.33,0,3.75,0c0.25,32.93,0.25,65.86,0.25,99c-86.36,0-172.43,0-258.75-0.25
		C591.51,108.01,591.51,107.51,591.51,107.51z"/>
	<path class="st15" d="M850.76,8.51c-0.25-1.17-0.25-2.33-0.25-3.75c0-0.25,0.5-0.25,0.75-0.25C851.32,5.84,851.97,7.27,850.76,8.51
		z"/>
	<path class="st5" d="M591.26,107.51c0.25,0,0.25,0.5,0.25,0.75s-0.5,0.25-0.75,0.25C590.68,108.18,590.84,107.84,591.26,107.51z"/>
	<path class="st5" d="M586.51,108.76c0-0.25,0.5-0.25,0.75-0.25c0.08,0.33-0.08,0.67-0.5,1
		C586.51,109.51,586.51,109.01,586.51,108.76z"/>
	<path class="st16" d="M435.76,243.51c-0.48-1.92-2.21-0.46-3.1-1.35c0-34.29,0-68.73,0-103.31c0.87-0.81,2.09-0.31,3.18-0.31
		c85.79-0.03,171.59-0.03,257.38,0c1.43,0,2.95-0.48,4.29,0.73c0,1.42,0,2.58-0.25,4c-1.42,0.25-2.58,0.25-4,0.25
		c-85.32,0-170.39,0-255.75,0c0,31.8,0,63.4,0,95.25c0,1.75,0,3.25,0,4.75C437.01,243.51,436.51,243.51,435.76,243.51z"/>
	<path class="st17" d="M693.51,143.51c1.17,0,2.33,0,3.75,0c0.25,33.27,0.25,66.53,0.25,100c-86.7,0-173.1,0-259.75,0
		c-0.25-1.5-0.25-3,0-4.75c84.97-0.25,169.69-0.25,253.97-0.25c0.85-0.68,1.36-1.09,1.78-1.42
		C693.51,205.77,693.51,174.64,693.51,143.51z"/>
	<path class="st16" d="M147.76,243.51c-1.58-1.5-1.25-3.33-1.25-5.08c-0.01-26.15,0-52.31,0-78.46c0-6.99,0-13.99,0-21.22
		c88.23,0,176.44,0,265,0c0,1.34,0,2.8-0.25,4.51c-1.42,0.25-2.58,0.25-4,0.25c-85.32,0-170.39,0-255.75,0c0,31.8,0,63.4,0,95.25
		c0,1.75,0,3.25,0,4.75C150.34,243.51,149.18,243.51,147.76,243.51z"/>
	<path class="st17" d="M151.76,243.51c-0.25-1.5-0.25-3,0-4.75c85.32-0.25,170.39-0.25,255.75-0.25c0-31.8,0-63.4,0-95
		c1.17,0,2.33,0,3.75,0c0.25,33.27,0.25,66.53,0.25,100C324.81,243.51,238.41,243.51,151.76,243.51z"/>
	<path class="st13" d="M557.26,9.51c0.25,31.27,0.25,62.53,0.25,94c-85.37,0-170.43,0-255.75,0c-0.25-31.27-0.25-62.53-0.25-94
		C386.88,9.51,471.94,9.51,557.26,9.51z M496.01,75.51c2.44,0,4.89,0,7.41,0c0-1.43,0-2.54,0-3.39c-0.78-1.99-2.62-1.31-3.83-1.95
		c-0.06-1.17-0.12-2.29-0.19-3.47c-4.35,0-8.57,0-12.81,0c-0.06,1.3-0.12,2.42-0.18,3.57c-1.49,0.29-3.06,0.18-3.87,1.78
		c0.05,1.04-0.32,2.19,0.24,3.25c1.18,0.67,2.65-0.4,3.71,0.66c0.16,1.15-0.3,2.32,0.34,3.41c1.16,0.57,2.64-0.53,3.68,0.66
		c0,1.17,0,2.32-0.5,3.48c-2.45,0-4.9,0-7.36,0c-0.08,1.58-0.52,2.86,0.13,3.72c1.36,0.63,2.58-0.19,3.67,0.7
		c0.05,1.07,0.1,2.19,0.16,3.39c4.35,0,8.57,0,12.82,0c0.07-1.31,0.13-2.43,0.18-3.44c1.26-0.9,2.75,0.24,3.84-0.78
		c0.03-1.14,0.32-2.27-0.24-3.47c-1.12-0.53-2.59,0.47-3.83-0.73c0-0.97,0-2.09,0-3.11c-1.32-0.73-2.8,0.34-3.86-0.76
		C495.51,77.83,495.51,76.67,496.01,75.51z M331.51,82.01c0.14,1.11-0.34,2.29,0.41,3.49c2.99-0.46,3.78,1.49,3.83,4.14
		c1.33,0,2.44,0,3.49,0c0.64,0.99-0.25,2.18,0.52,2.7c3.37,0,6.48,0,9.47,0c0.64-0.98-0.27-2.18,0.51-2.64c3.76,0,7.21,0,10.63,0
		c0.11,0.97,0.21,1.76,0.31,2.61c3.29,0,6.52,0,9.72,0c0.09-0.99,0.17-1.78,0.24-2.6c1.28-0.6,2.74,0.39,4-0.79c0-0.98,0-2.1,0-3.09
		c0.98-0.71,2.18,0.21,2.87-0.83c0-1.16,0-2.33,0.5-3.49c1.1-0.12,2.24,0.29,3.6-0.44c0-2.06,0-4.27,0-6.31
		c1.45-0.64,2.88,0.36,3.9-0.76c0-0.86,0-1.67,0-2.99c-0.12-1.1,0.29-2.24-0.29-3.31c-1.15-0.63-2.58,0.41-3.65-0.61
		c-0.05-0.79-0.1-1.57-0.14-2.22c-1.3-0.84-2.73,0.19-3.72-0.65c-0.64-1.25,0.47-2.7-0.75-3.71c-0.83,0-1.65,0-2.46-0.5
		c0-3.17,0-6.33,0-10c0.12-1.1-0.31-2.26,0.28-3.29c0.84-0.59,2.01,0.31,2.71-0.69c0.19-0.76-0.3-1.62,0.33-2.33
		c0.95-0.51,2.16,0.18,3.08-0.97c0.85-1.08,0.46-2.14,0.61-3.71c-0.13-1.11,0.33-2.28-0.31-3.33c-2.22-0.55-4.55,0.31-6.66-0.45
		c-0.18-1.35,0.31-2.52-0.45-3.72c-1.74,0-3.55-0.06-5.35,0.02c-1.75,0.08-3.56-0.34-5.2,0.22c-0.19,1.39,0.31,2.57-0.3,3.51
		c-5.65,0-11.2,0-16.7,0c-0.18-1.36,0.28-2.53-0.3-3.5c-3.64,0-7.2,0-10.7,0c-0.18,1.36,0.28,2.53-0.34,3.58
		c-2.22,0.56-4.56-0.32-6.7,0.47c0,1.38,0,2.54-0.5,3.7c-1.09,0.11-2.23-0.28-3.37,0.31c-0.07,0.74-0.15,1.51-0.23,2.28
		c-2.16,0.53-2.16,0.53-3.91,2.08c0,2.11,0,4.22,0,6.83c0,3.17,0,6.33,0,10c0,2.11,0,4.23,0,6.2c1.83,0.7,3.57-0.27,5,0.75
		c0,1.23,0,2.39,0,4.05c0.13,0.77-0.3,1.61,0.24,2.26c0.86,0.63,2.03-0.27,2.72,0.69c0.22,2.18-0.29,4.43,0.31,6.55
		C329.89,81.51,330.7,81.51,331.51,82.01z M413.51,54.01c0,0,0,0.5,0,1c0,12.12,0,24.23,0,36c0.7,0.7,1.05,1.05,1.37,1.37
		c2.15,0,4.27,0,6.25,0c0.48-0.48,0.83-0.83,1.54-1.54c0-3.43,0-7.22,0.02-11c0-0.11,0.23-0.22,0.34-0.33c0.67,0,1.34,0,1.99,0
		c0.48,0.48,0.95,0.95,1.6,1.6c0,1.94,0,4.07,0,6.15c2.75,0,5.32,0,8.06,0c0-2.7,0-5.15,0-7.63c1.42-0.05,2.71-0.52,3.86,0.38
		c0,3.72,0,7.38,0,11.02c0.49,0.49,0.96,0.96,1.33,1.33c2.23,0,4.35,0,6.45,0c0.56-11.13,0.38-33.82-0.3-37.85c-0.5,0-1,0-1.5-0.5
		c0,0,0-0.5,0-1c0-2.45,0-4.9,0-7.15c-1.48-0.8-2.96,0.29-4.18-1.05c0-3.95,0-8.06,0-12.05c-1.32-0.7-2.8,0.4-4.02-0.99
		c0-2.27,0-4.71,0-7.18c-1.3-0.07-2.42-0.12-3.88-0.19c0-2.67,0-5.25,0-7.77c-3.12,0-5.9,0-9.02,0c0,2.68,0,5.26,0,7.79
		c-1.46,0.07-2.58,0.13-4.03,0.21c0,2.72,0,5.29,0,8.01c-1.46,0-2.58,0-4.02,0c0,4.4,0,8.63,0,12.79c-1.44,0.24-2.62-0.21-3.88,0.49
		c0.09,2.49-0.13,5.06,0.14,7.6C412.51,53.51,413.01,53.51,413.51,54.01z M479.51,39.01c0,7.45,0,14.9,0,22.41c3.12,0,5.91,0,9.04,0
		c0-2.66,0-5.24,0-7.97c4.13,0,7.92,0,11.57,0c0.93-1.3-0.23-2.8,0.98-4.05c0.97,0,2.08,0,3.16,0c0-5.41,0-10.65,0-15.84
		c-1.36-0.2-2.54,0.27-3.82-0.49c0.11-1.64,0.53-3.59-1.57-4.51c-6,0-11.98,0-17.9,0c-0.53,0.52-1,0.99-1.47,1.45
		C479.51,32.68,479.51,35.34,479.51,39.01z M449.51,30.01c0,10.44,0,20.89,0,31.6c2.89-0.29,5.47,0.18,8.19-0.33
		c0-2.75,0-5.2,0-7.81c3.97,0,7.75,0,11.41,0c0.94-1.29-0.18-2.79,0.81-3.88c1.13-0.06,2.26-0.12,3.36-0.18c0-5.4,0-10.63,0-16.03
		c-1.35,0-2.47,0-3.48,0c-0.75-1.32,0.35-2.81-0.78-3.86C462.66,29.51,456.34,29.51,449.51,30.01z M468.51,77.01
		c0,2.12,0,4.25,0,6.53c-1.47,0-2.59,0-3.81,0c-0.55,1.33,0.33,2.78-0.53,3.84c-1.2,0-2.31,0-3.78,0c0-6.7,0-13.28,0-19.7
		c-2.81,0-5.26,0-7.92,0c0.17,6.72-0.2,13.29,0.23,19.78c1.46,0.21,2.65-0.34,3.73,0.44c0.06,1.11,0.12,2.24,0.18,3.39
		c7.04,0,13.94,0,20.75,0c0-8.01,0-15.79,0-23.53c-3.06,0-5.96,0-8.85,0C468.51,70.68,468.51,73.34,468.51,77.01z M542.01,45.51
		c-1.3,1.08,0.33,2.95-0.79,3.81c-2.73,0-5.17,0-7.6,0c0-2.64,0-5.09,0-7.86c5.33,0,10.56,0,15.78,0c0-2.78,0-5.23,0-7.59
		c-1.24-0.89-2.73,0.24-3.81-0.76c-0.3-1.53,0.55-3.42-1.7-4.5c-4.48,0-9.25,0-14.01,0c-0.43,0.72-1.36,0.98-1.39,1.99
		c-0.03,0.94,0.39,1.97-0.38,2.84c-1.11,0.06-2.23,0.12-3.39,0.19c0,5.37,0,10.59,0,15.8c1.33,0.07,2.44,0.13,3.44,0.19
		c0.87,1.3-0.29,2.79,0.69,3.77c5.55,0,10.99,0,16.34,0c0.83-1.27-0.33-2.77,0.95-4.01c0.95,0,2.07,0,3.22,0
		c0.11-1.42,0.5-2.7-0.31-3.86C547,45.51,545,45.51,542.01,45.51z M530.01,91.51c4.45,0,8.89,0,13.14,0
		c0.81-1.48-0.28-2.96,0.85-3.99c1.16-0.17,2.34,0.37,3.39-0.37c0-1.14,0-2.25,0-3.43c-2.68,0-5.25,0-7.8,0
		c-0.07,1.33-0.14,2.45-0.2,3.56c-2.73,0-5.3,0-7.75,0c0-5.34,0-10.45,0-15.54c2.71,0,5.28,0,7.79,0c0.22,1.35-0.23,2.52,0.47,3.78
		c2.49-0.09,5.06,0.14,7.65-0.15c-0.2-1.49,0.3-2.68-0.5-3.9c-1.03,0-2.15,0-3.14,0c-0.95-1.3,0.16-2.78-0.79-3.85
		c-5.48,0-10.92,0-16.28,0c-0.89,1.24,0.25,2.73-0.76,3.82c-1.14,0.05-2.25,0.11-3.36,0.16c0,5.42,0,10.64,0,16.04
		c1.34,0,2.46,0,3.48,0c0.76,1.32-0.33,2.81,0.77,3.87C527.68,91.51,528.35,91.51,530.01,91.51z M509.51,31.01
		c0,7.44,0,14.87,0,22.25c3.21,0,6.11,0,8.86,0c0-12.34,0-24.44,0-36.64c-2.58,0-5.03,0-7.4,0c-0.53,0.49-1.01,0.94-1.46,1.36
		C509.51,22.03,509.51,26.02,509.51,31.01z M508.51,80.01c0,3.78,0,7.56,0,11.53c2.9-0.11,5.47,0.12,7.83-0.14
		c0-8.19,0-15.96,0-23.91c-2.73,0.1-5.3-0.13-7.83,0.15C508.51,71.7,508.51,75.35,508.51,80.01z M361.01,25.51
		c1.63,0.27,2.86-0.23,3.63-2.17c-1.94-1.35-0.72-3.68-1.31-5.61c-2.32,0-4.54,0-6.93,0c0,1.33,0,2.45,0,3.42
		c-0.96,0.79-2.16-0.18-2.83,0.79c-0.27,0.8,0.32,1.68-0.43,2.47c-1.1,0.49-2.55-0.49-3.47,0.42c0,2.29,0,4.4,0,6.59
		c2.26,0,4.37,0,6.5,0c0.23-0.6,0.45-1.17,0.67-1.73c1.15-0.62,2.62,0.45,3.67-0.66C360.51,27.99,360.51,27,361.01,25.51z
		 M511.01,54.51c-0.77,0.14-1.63-0.32-2.45,0.4c0,1.5-0.32,3.08,0.18,4.46c2.69,0,5.12,0,7.45,0c1.64-2.54,1.64-2.54-0.24-4.87
		C514.64,54.51,513.33,54.51,511.01,54.51z"/>
	<path class="st13" d="M271.26,9.51c0.25,31.27,0.25,62.53,0.25,94c-85.03,0-169.77,0-254.75,0c-0.25-31.27-0.25-62.53-0.25-94
		C101.54,9.51,186.28,9.51,271.26,9.51z M91.51,70.01c0.14-1.12-0.34-2.3,0.35-3.39c0.56-0.18,1.32,0.05,1.45-0.24
		c0-5.23,0-10.01,0-14.73c-0.66-0.14-1.12-0.23-1.73-0.36c0-1.82,0-3.61,0-5.4c-0.73-0.27-1.31-0.48-2.06-0.76c0-1.05,0-2.17,0-3.32
		c-4.33-2.51-6.77-6.95-11.1-10.01c-0.28-0.41,0.65-1.61-0.75-2.47c-1.15,0-2.6,0-4.04,0c-0.14-0.77,0.04-1.51-0.88-1.85
		c-1.51,0-3.16,0-4.89,0c-0.22-0.59-0.43-1.17-0.67-1.85c-4.74,0-9.53,0-14.3,0c-0.25,0.61-0.48,1.18-0.72,1.75
		c-1.85,0.5-3.87-0.31-5.63,0.44c-0.04,0.76,0.11,1.29-0.73,1.79c-1.15,0-2.6,0-4.11,0c-0.11,0.95-0.2,1.74-0.26,2.28
		c-4.04,3.19-6.9,7.37-10.85,10.02c-0.27,1.38,0.42,2.6-0.44,3.51c-0.57,0.12-1.02,0.21-1.5,0.31c-0.11,2.02-0.22,3.93-0.32,5.76
		c-0.82,0.09-1.37-0.13-1.83,0.67c0.18,4.63-0.27,9.52,0.27,14.37c0.85,0,1.36-0.07,1.86,0.73c0,1.83,0,3.95,0,6
		c0.76,0.26,1.34,0.46,1.86,0.64c0.17,1.24-0.31,2.42,0.32,3.44c0.86,0.55,2.07-0.37,2.73,0.81c0,0.62,0,1.28,0,1.53
		c3,2.92,5.78,5.63,9.06,8.82c0.31,0,1.44,0,2.5,0c0.52,1.18,0.71,2.36,2.17,3.12c1.43,0,3.22,0,4.94,0
		c0.26,0.76,0.47,1.34,0.61,1.75c4.94,0,9.73,0,14.46,0c0.35-0.69,0.05-1.48,0.82-1.85c1.61,0,3.27,0,4.89,0
		c1.29-0.63,1.39-2.08,2.23-3.06c0.99,0,1.97,0,2.37,0c3.08-3.06,5.83-5.8,8.88-8.83c0.03-0.27,0.12-1.05,0.22-1.9
		c0.86-0.58,2.05,0.3,2.95-0.86c0-0.89,0-2.01,0-3c0.68-0.51,1.51-0.13,1.88-0.86C91.51,72.34,91.51,71.68,91.51,70.01z
		 M143.51,80.01c0-1.46,0-2.92,0-4.52c4.46,0,8.58,0,12.56,0c0.99-1.28-0.13-2.78,0.86-3.9c1.09-0.06,2.21-0.12,3.46-0.19
		c0-5.24,0-10.35,0-15.52c-0.42-0.42-0.81-1.04-1.38-1.32c-0.69-0.34-1.63,0.28-2.37-0.39c0.02-1.51-0.31-2.86-1.38-3.45
		c-7.15,0-13.92,0-20.75,0c0,4.37,0.09,8.52-0.02,12.67c-0.18,7.02,1.86,13.89,0.88,21.21c3.02-0.26,5.6,0.15,8.14-0.28
		C143.51,83.01,143.51,82.01,143.51,80.01z M106.01,42.51c-1,1.51-0.93,3.48-0.37,4.72c1.21,2.66,0.54,5.39,1.03,8.11
		c1.24,0.57,2.7-0.4,3.96,0.75c0,0.99,0,2.1,0,3.56c4.4,0,8.65,0,12.72,0c0,4.12,0,7.91,0,11.9c-2.73-0.13-5.3,0.1-7.79-0.15
		c-0.2-1.52,0.29-2.7-0.41-3.79c-2.78,0-5.56,0-8.44,0c0,1.67,0,3.24,0,4.81c1.32,0.07,2.44,0.14,3.8,0.21
		c0,0.75-0.03,1.39,0.01,2.02c0.03,0.63-0.23,1.34,0.55,1.89c5.36-0.35,10.95,0.88,16.27-1.35c0.63-1.15-0.47-2.64,0.67-3.66
		c1.16-0.17,2.35,0.38,3.39-0.37c0-4.13,0-8.24,0-12.27c-1.23-0.89-2.72,0.22-3.81-0.76c-0.06-1.13-0.12-2.25-0.2-3.7
		c-4.37,0-8.61,0-12.73,0c0-4.12,0-7.9,0-11.65c2.72,0,5.28,0,7.8,0c0.21,1.35-0.25,2.53,0.46,3.77c2.82-0.07,5.73,0.11,8.41-0.1
		c0-1.89,0-3.34,0-4.83c-1.3-0.06-2.42-0.11-3.44-0.16c-0.91-1.26,0.21-2.75-0.74-3.79c-5.49,0-10.94,0-16.52,0
		c-0.07,1.23-0.13,2.35-0.19,3.43C109.6,42.34,108.45,42.78,106.01,42.51z M241.01,66.51c0.46,0.06,1.02-0.22,1.5,0.62
		c0,1.7,0.01,3.68,0,5.65c-0.02,1.92-0.07,3.84-0.11,5.91c-2.88,0-5.33,0-7.78,0c0,1.63,0,3.08,0,4.67c3.88,0,7.66,0,11.53,0
		c0.37-0.37,0.84-0.84,1.49-1.49c0-0.94,0-2.06,0-3.08c1.32-0.76,2.81,0.32,4.04-0.94c0-2.31,0-4.76,0-7.37c1.28,0,2.4,0,3.69,0
		c0.45-1.33-0.34-2.76,0.54-3.91c1.11-0.06,2.23-0.12,3.41-0.18c0-5.69,0-11.25,0-16.78c-2.98,0-5.76,0-8.87,0
		c0,5.34,0,10.58,0,15.79c-1.46,0.07-2.59,0.3-4.02-0.28c0-5.12,0-10.35,0-15.5c-3.12,0-5.9,0-8.79,0c0,5.24,0,10.35,0,15.48
		C238.32,65.71,238.79,66.75,241.01,66.51z M167.51,74.01c0.47,0.47,0.94,0.94,1.54,1.54c5.01-0.36,10.26,0.87,15.41-1.48
		c0.45-1-0.58-2.47,0.51-3.53c1.12-0.18,2.29,0.28,3.29-0.29c0-5.62,0-11.18,0-16.52c-1.34-0.52-2.53,0.18-3.64-0.58
		c-0.55-1.12,0.55-2.6-0.45-3.47c-5.31,0-10.41,0-15.09,0c-2.35,1.17-1.15,3.17-1.85,4.75c-1.13,0.44-2.58-0.49-3.6,0.46
		c0,5.16,0,10.27,0,15.25c0.36,0.36,0.63,0.57,0.82,0.83c0.61,0.82,1.49,0.45,2.27,0.55C167.65,71.64,167.53,72.36,167.51,74.01z
		 M228.01,36.51c-0.33,0-0.67,0-1.03,0c-1.09,1.07,0,2.55-0.78,3.9c-0.57,1.63-2.55,0.66-3.54,1.43c0,10.92,0,21.7,0,32.43
		c2.73,0,5.29,0,8.02,0c0-7.03,0-13.81,0-20.77c1.29,0,2.41,0,3.6,0c0.32-1.42,0.39-2.66-0.05-3.9c-1.24-0.07-2.36-0.13-3.5-0.2
		c0-2.71,0-5.28,0-8.02c1.34,0,2.46,0,3.92,0c-0.45-1.74,0.33-3.37-0.56-4.88C232.34,36.51,230.68,36.51,228.01,36.51z
		 M192.51,43.01c0,8.77,0,17.54,0,25.48c1.25,3.05,3.72,1.25,4.96,2.44c0.23,1.26-0.37,2.46,0.39,3.46c2.5,0,4.95,0,7.45,0
		c0.27-1.37,0.41-2.62-0.23-3.99c-1.12,0-2.24,0-3.33,0c0-5.74,0-11.29,0-17.02c1.35,0,2.46,0,3.62,0c0.13-1.43,0.5-2.7-0.28-3.85
		c-1.18-0.15-2.36,0.32-3.59-0.44c0-2.37,0-4.82,0-7.09c-0.52-0.52-0.87-0.87-1.35-1.35c-1.98,0-4.1,0-6.25,0
		C193.45,41.07,192.98,41.54,192.51,43.01z M208.51,72.01c0.15,0.78-0.34,1.65,0.37,2.41c2.76,0,5.54,0,8.46,0
		c0-8.31,0-16.53,0-24.92c-3.07,0.08-5.97-0.11-8.83,0.13C208.51,57.05,208.51,64.03,208.51,72.01z M208.51,40.01
		c0.06,0.46-0.21,1.01,0.62,1.5c2.62-0.06,5.51,0.1,8.2-0.09c0-1.88,0-3.33,0-4.93c-3.07,0.06-5.96-0.05-8.83,0.06
		C208.51,37.68,208.51,38.35,208.51,40.01z"/>
	<path class="st18" d="M846.26,9.51c0.25,31.27,0.25,62.53,0.25,94c-84.36,0-168.43,0-252.75-0.25c-0.25-30.7-0.25-61.14-0.25-91.75
		c82.96,0,165.58,0,248.21-0.01c0.15,0,0.31-0.07,0.43-0.15c0.14-0.09,0.24-0.23,0.36-0.35c0-0.5,0-1,0-1.5
		C843.68,9.51,844.84,9.51,846.26,9.51z M631.01,70.51c0.47-0.06,1.02,0.22,1.53-0.67c0-2.14,0-4.59,0-7.03
		c0.94-0.49,1.29-1.81,2.97-1c0,2.08,0.1,4.37-0.03,6.65c-0.14,2.44,0.78,4.34,2.46,5.99c1.66,1.63,3.3,3.29,4.98,4.98
		c1.69-0.5,2.83,1.17,4.5,1.12c3.66-0.12,7.33-0.03,10.99-0.04c0.97,0,5.35-1.71,5.98-2.42c1.21-1.36,2.79-2.02,4.58-2.64
		c3.28,4.03,7.75,5.2,12.78,5.09c4.47-0.1,8.95-0.02,13.24-0.02c0.53,0.53,1.15,0.86,1.19,1.24c0.36,3.49,2.62,5.73,4.98,7.95
		c1.58,1.48,3.11,3.01,4.59,4.59c2.65,2.82,5.99,4.18,9.75,4.19c33.98,0.05,67.96,0.04,101.94,0.01c3.78,0,7.07-1.39,9.76-4.17
		c3.01-3.11,6.11-6.14,9.11-9.14c0.84-11.55-1.01-23.14,1.19-34.58c0.61-3.18-1.23-5.96-1.08-9.09c0.23-4.82,0.06-9.66,0.06-13.95
		c-2.49-6.25-8.73-8.21-12.42-13.13c-2.08,0.88-3.77-1.01-5.88-0.93c-2.16,0.08-4.33,0.02-6.5,0.02c-10.33,0-20.65,0-30.98,0
		c-21.49,0-42.97,0.03-64.46-0.03c-3.3-0.01-6.31,0.91-8.85,2.75c-2.34,1.69-4.11,4.11-6.69,5.6c-2.04,1.17-2.39,3.82-4.24,5.22
		c0,3.33,0,6.66,0,9.99c-1.1,0.45-0.71,1.76-1.42,2.42c-0.97-0.19-1.51,0.45-2.06,1.06c-2,0-4,0-5.23,0
		c-1.84,0.42-1.99,2.07-3.44,2.03c-1.79-0.13-3.16-1.22-4.65-2.03c-2.5,0-5.03,0.24-7.49-0.07c-2.65-0.33-4.18,2.3-7.05,2.03
		c-0.6-0.52-1.45-1.24-1.49-1.28c-7.8-3.09-14.85-1.12-21.15-0.61c-2.74-1.28-1.65-3.25-2.14-4.71c-1.41-1.41-2.83-2.83-4.24-4.24
		c-3.45,0-6.9,0-10.23,0c-0.7,0.7-1.29,1.29-1.88,1.88c-1.12-0.14-2.29,0.33-3.87-0.64c-0.15-0.2-0.65-0.86-0.99-1.31
		c-3.29,0-6.27,0-9.26,0c-2.1,0.74-3.85,2.11-4.08,4.25c-0.26,2.38-1.26,4.54-1.4,6.98c-0.26,4.28,0.99,8.31,1.31,12.44
		c0.63,0.63,1.21,1.23,1.81,1.81c4.14,3.96,6.96,8.44,5.99,14.52c-0.13,0.81-0.02,1.66-0.02,2.43c1.56,1.49,1.46,3.93,3.21,5.23
		c7.24,1.61,7.24,1.61,13.53-0.94c0.24-0.57,0.42-1.16,0.72-1.7c0.81-1.47,1.1-2.86-0.45-4.56
		C630.51,71.51,630.51,71.01,631.01,70.51z"/>
	<path class="st13" d="M842.26,9.51c0.25,0.5,0.25,1,0.25,1.5c-0.12,0.12-0.22,0.26-0.36,0.35c-0.13,0.08-0.29,0.15-0.43,0.15
		c-82.62,0.01-165.25,0.01-248.21,0.01c0,30.61,0,61.05,0,91.75c-0.5,0.25-1,0.25-1.75,0.25c-0.25-31.27-0.25-62.53-0.25-94
		C675.21,9.51,758.61,9.51,842.26,9.51z"/>
	<path class="st19" d="M693.26,143.51c0.25,31.13,0.25,62.27,0.25,93.58c-0.42,0.33-0.93,0.74-1.78,1.42c-84.28,0-169,0-253.97,0
		c-0.25-31.6-0.25-63.2-0.25-95C522.87,143.51,607.94,143.51,693.26,143.51z M567.01,202.51c0.5,0,1,0,2,0
		c0.78,0.15,1.65-0.34,2.38,0.34c0.09,0.78,0.17,1.57,0.29,2.66c5.95,0,11.89,0,18.33,0c0.17-0.33,0.33-0.67,0.5-1.5
		c0-0.83,0-1.67,0.5-2.5c0,0,0.5,0,0.5,0.5c0.71,1.17,2.34-0.21,2.98,1.03c0.2,0.82-0.37,1.72,0.37,2.34c4.84,0,9.62,0,14.29,0
		c0.83-0.9-0.19-2.13,0.66-2.73c2.27,0,4.39,0,6.39,0c0.71,0.95-0.22,2.16,0.56,2.68c6.37,0,12.48,0,18.66,0c0-5.95,0-11.73,0-17.16
		c-0.78-2.12-2.7-1.3-3.85-2.04c-0.06-0.85-0.11-1.64-0.16-2.39c-5.1,0-10,0-14.91,0c0.11,1.36-0.31,2.52,0.5,3.93
		c3.27,0,6.72,0,10.17,0.02c0.11,0,0.22,0.23,0.33,0.35c-0.18,0.77,0.35,1.66-0.55,2.51c-3.27,0-6.72,0-10.04,0
		c-0.94,1.29,0.19,2.79-0.81,3.87c-1.14,0.06-2.26,0.12-3.25,0.18c-0.86,1.31,0.31,2.81-0.81,3.88c-2.23-1.09-4.66-1.35-5.45-0.57
		c-1.74,0.57-0.68,2.34-1.33,3.34c-2.3,0-4.53,0-6.6,0c0-4.7,0-9.14,0-13.66c2.28,0,4.4,0,6.57,0c0.39,1.41,0.12,3.07,1.61,3.77
		c2.22,0,4.34,0,6.55,0c0-1.26,0-2.38,0-3.31c-0.76-1.91-2.59-1.25-3.79-1.88c-0.09-0.86-0.17-1.65-0.25-2.45
		c-5.01,0-9.91,0-14.71,0c-0.38,0.98,0.22,1.87-0.26,2.39c-0.94,0.92-2.66-0.53-3.39,1.38c0,0-0.5,0-0.5-0.5c0-4.5,0-9,0-14
		c-0.33-0.17-0.67-0.33-1.5-0.5c-2.1,0-4.21,0-6.6,0c0,3.83,0,7.38,0,10.88c-3.83,0.36-7.4-0.21-10.9,0.34c0,1.14,0,1.96-0.5,2.78
		c-0.17,0.33-0.33,0.67-1,1c-0.5,0-1,0-2,0c-0.5,0-1,0-2,0c-0.78-0.15-1.65,0.34-2.29-0.26c-0.66-1.23,0.45-2.72-0.52-3.55
		c-6.37,0-12.47,0-18.59,0c0,7.3,0,14.4,0,21.61c2.67,0,5.23,0,7.96,0c0-4.64,0-9.09,0-13.37c0.93-0.93,2.17,0.13,2.87-0.85
		c0.06-1.13,0.11-2.25,0.19-3.77c1.39,0.57,2.7-0.39,4.03,0.78c0,5.67,0,11.45,0,17.16c2.41,0,4.64,0,6.86,0
		C566.51,204.17,566.51,203.34,567.01,202.51z M520.51,193.01c0-0.5,0-1,0-2c-0.33-0.17-0.67-0.33-1.5-0.5
		c-0.73,0.01-1.52,0.11-1.5-1.5c0-0.5,0-1,0.5-1.5c0.5,0,1,0,2,0c0.17-0.33,0.33-0.67,0.5-1.5c0-3.44,0-6.88,0-10.02
		c-1.07-0.99-2.77,0.43-3-1.98c-0.33-0.17-0.67-0.33-1-1c-0.61-0.8-1.48-0.48-2.25-0.49c-4.92-0.03-9.83-0.01-14.75-0.51
		c-0.62-0.81-1.51-0.49-2.29-0.49c-10.81-0.02-21.62,0.05-32.42-0.07c-2.04-0.02-3.65,0.69-5.1,1.74c-1.69,1.13-0.26,4.12-3,4.63
		c-0.26,4.72-4.16,7.92-5.17,12.32c-0.11,0.46,0.08,1.1-0.46,1.29c-2.12,0.75-2.99,2.64-3.47,4.47c-0.58,2.23-2.71,3.49-3.07,5.72
		c-0.14,0.91-1.64,1.32-0.76,2.71c12.63,0,25.38,0,38.32,0c2.51-2.48,3.23-4.15,3.45-8.69c0.89-0.72,2.04-1.65,2.88-2.33
		c0.25-1.23-0.27-2.13,0.46-2.69c0.58-0.12,1.03-0.21,1.49-0.31c0.28-3.14,0.49-6.21,4.15-7.29c0-0.99,0-1.99,0-3.45
		c0.9-0.73,2.05-1.66,2.84-2.31c0.43-1.26-0.49-2.57,1.17-2.26c0,10.11,0,20.21,0,30.5c5.95,0,11.58,0.01,17.21-0.02
		c0.26,0,0.53-0.31,0.79-0.48c0-0.5,0-1,0.5-1.5c0.17-0.33,0.33-0.67,1-1c0.5,0,1,0,2,0c1.46,0,2.92,0,4.34,0
		c0.13,1.13,0.21,1.92,0.31,2.81c6.27,0,12.5,0,18.74,0c0-5.97,0-11.74,0-17.09c-0.77-2.26-2.77-1.26-3.61-1.93
		c-0.58-1.01,0.12-1.91-0.61-2.63c-4.78,0-9.55,0-14.33,0.01c-0.12,0-0.25,0.2-0.35,0.29c0.16,1.16-0.34,2.34,0.56,3.73
		c3.26,0,6.7,0,10.15,0.02c0.1,0,0.2,0.23,0.37,0.44c-0.33,0.67,0.34,1.59-0.66,2.42c-3.25,0-6.7,0-10.03,0
		c-0.91,1.3,0.25,2.8-0.76,3.82C522.64,195.03,521.66,193.95,520.51,193.01z M644.51,191.01c0.14-1.11-0.34-2.29,0.35-3.4
		c0.78,0,1.57,0,2.7,0c0,6,0,11.9,0,17.78c2.8,0,5.25,0,8.04,0c0-6.02,0-11.93,0-17.83c1.14,0.03,1.96-0.31,3.04,0.49
		c0,5.65,0,11.56,0,17.3c2.8,0,5.25,0,7.78,0c0-5.94,0-11.72,0-17.47c-1.35-0.61-2.61-1.18-3.84-1.75
		c-0.06-0.85-0.11-1.63-0.16-2.39c-8.76,0-17.32,0-25.75,0c0,7.35,0,14.46,0,21.79c2.73-0.1,5.31,0.13,7.85-0.16
		C644.51,200.67,644.51,196.34,644.51,191.01z M689.51,187.01c-0.71-1.16-2.33,0.2-2.98-1.03c-0.21-0.81,0.37-1.71-0.39-2.36
		c-6.14,0-12.24,0-18.45,0c0,9.99,0,19.87,0,29.79c2.63,0,5.07,0,7.86,0c0-2.66,0-5.24,0-7.95c3.79,0,7.24,0,10.51,0
		c0.96-0.92-0.12-2.16,0.87-2.88c1.32,0,2.65,0.01,3.64-1.89C690.07,196.63,691.18,192.04,689.51,187.01z"/>
	<path class="st19" d="M407.26,143.51c0.25,31.6,0.25,63.2,0.25,95c-85.36,0-170.43,0-255.75,0c-0.25-31.6-0.25-63.2-0.25-95
		C236.87,143.51,321.94,143.51,407.26,143.51z M291.51,171.01c-0.33-0.17-0.67-0.33-1.5-0.5c-8.77,0-17.55,0-26.45,0
		c0.01,1.9-0.35,3.49,0.32,5.18c2.94,0,5.72,0,8.63,0c0,6.48-0.01,12.78,0,19.09c0.01,6.25-0.04,12.5,0.03,18.56
		c3.61,0,6.72,0,9.97,0c0-12.47,0-24.76,0.01-37.05c0-0.14,0.07-0.31,0.16-0.43c0.09-0.13,0.23-0.23,0.35-0.35c2.83,0,5.66,0,8.98,0
		c0,0,0.5,0,1,0c3.11,0,6.22,0,9.34,0c0.13-1.57,0.51-2.84-0.29-4c-0.56,0-1.06,0-1.56-0.5c-2.51-1.03-5.09-0.42-7.65-0.31
		c-0.13,0.01-0.23,0.53-0.85,0.81C292.01,171.51,291.51,171.51,291.51,171.01z M176.51,167.01c-0.43-0.17-1.14-0.58-1.25-0.46
		c-1.4,1.57-2.51,3.42-4.57,4.32c-0.43,0.19-0.95,0.64-1.03,1.04c-0.46,2.35-2.44,3.5-3.99,4.8c-1.43,1.2-2.81,2.22-3.11,3.89
		c0.63,2.35,2.6,3.19,4.07,4.46c1.76,1.52,2.45,4.3,4.3,5.08c2.02,0.85,2.68,3.44,5.09,3.42c0.71-3.55,5.14-3.45,6.25-6.37
		c1.27-3.33,5.28-3.64,6.62-6.82c1.11,3.55,5.12,3.94,6.64,6.82c1.4,2.67,4.6,3.66,6.29,6.54c-4.57,4.57-9.09,9.1-13.78,13.78
		c0.75,0.76,1.12,1.46,1.65,1.62c2.37,0.71,4.16,2.51,5.08,4.36c1.41,2.84,4.53,3.46,6.16,5.84c0.24,0.35,1.23,0.18,1.98,0.26
		c1.55-1.31,3.22-2.62,4.71-3.96c1.31-1.18,2.4-2.93,3.66-4.4c1.29-1.51,3.78-1.8,4.01-4.87c-4.03-4.02-8.53-8.5-12.9-12.85
		c1.52-3.15,5.28-3.32,6.5-6.65c1-2.73,5.43-2.86,6.06-6.34c4.87,4.04,8.9,8.84,13.84,13.26c1.4-2,3.65-3.03,5.17-5.08
		c1.58-2.12,3.74-3.78,5.57-5.73c0.75-0.8,2-1.28,2.02-3.02c-4.67-3.7-6.99-10.19-13.66-12.55c-1.98,2.06-3.99,4.26-6.13,6.35
		c-2.09,2.04-3.92,4.4-6.58,6.11c-2.38-2.46-4.45-4.87-6.82-6.94c-2.26-1.98-3.58-5.29-7.18-5.56c-2.22,2.22-4.32,4.35-6.45,6.44
		c-1.92,1.89-3.31,4.35-5.8,5.4c-2.26-1.67-5.11-2.82-6.29-5.31C181.26,171.02,177.88,170.62,176.51,167.01z M335.51,204.01
		c0-10.78,0-21.55,0-32.52c-3.22,0.08-6.13-0.1-8.99,0.13c-0.14,4.92,0.63,9.52-1.5,13.98c-4.05,0-8.17,0-11.61,0
		c-2.97,1.11-1.15,3.59-2.35,4.89c-1.2,0.17-2.39-0.36-3.45,0.38c0,6.13,0,12.24,0,18.27c1.23,0.9,2.72-0.22,3.81,0.77
		c0.33,1.53-0.56,3.43,1.9,4.6c7.07-0.02,14.63,0.03,22.18-0.03C335.51,211,335.51,208,335.51,204.01z M357.01,194.51
		c-3.78,0-7.56,0-10.59,0c-2.67,1.33-1.49,3.32-2.16,4.9c-1.08,0.06-2.2,0.12-3.32,0.17c-0.47,0.47-0.94,0.94-1.26,1.26
		c0,2.6,0,5.05,0,7.08c1.16,2.33,3.15,1.18,4.91,1.89c0,1.48,0,3.05,0,4.58c8.12,0,15.88,0,23.74,0c0-8,0-15.88,0-23.81
		c-1.3-0.06-2.42-0.11-3.46-0.16c-0.53-0.77-1.37-1.08-1.39-2.09c-0.02-0.93,0.46-1.99-0.29-2.68c-6.25,0-12.36,0-18.61,0
		c-0.02,1.72-0.31,3.31,0.25,5c4.61,0,9.05,0,13.52,0C358.47,192.06,358.86,193.34,357.01,194.51z M373.51,209.01
		c0,1.79,0,3.58,0,5.41c3.46,0,6.58,0,9.83,0c0-14.31,0-28.53,0-42.81c-3.29,0-6.4,0-9.83,0
		C373.51,183.8,373.51,195.9,373.51,209.01z M292.51,209.01c0,1.45,0,2.91,0,4.42c3.11,0,5.88,0,8.37,0c0.7-0.58,1.21-1,1.48-1.22
		c0-9.02,0-17.76,0-26.35c-0.5-0.5-0.86-0.86-1.26-1.26c-2.39,0-4.84,0-7.18,0c-0.44,0.44-0.79,0.79-1.41,1.41
		C292.51,193.17,292.51,200.59,292.51,209.01z"/>
	<path class="st20" d="M444.51,54.51c0.5,0,1,0,1.5,0c0.68,4.03,0.86,26.72,0.3,37.85c-2.1,0-4.22,0-6.45,0
		c-0.36-0.36-0.84-0.84-1.33-1.33c0-3.64,0-7.3,0-11.02c-1.15-0.9-2.44-0.43-3.86-0.38c0,2.48,0,4.94,0,7.63c-2.73,0-5.3,0-8.06,0
		c0-2.08,0-4.21,0-6.15c-0.65-0.65-1.12-1.12-1.6-1.6c-0.66,0-1.32,0-1.99,0c-0.11,0.1-0.34,0.22-0.34,0.33
		c-0.02,3.78-0.02,7.57-0.02,11c-0.7,0.7-1.06,1.06-1.54,1.54c-1.99,0-4.1,0-6.25,0c-0.32-0.32-0.68-0.68-1.37-1.37
		c0-11.77,0-23.88,0.25-36.25c2.08-0.25,3.92-0.25,6-0.25c1.47-0.25,1.93,0.79,2.8,1.53c0,2.31,0,4.75,0,7.07
		c1.28,0.92,2.75-0.16,4,0.91c0,2.32,0,4.76,0,7.3c2.71,0,5.27,0,8.16,0c0-2.74,0-5.29,0-7.76c1.44-0.21,2.62,0.32,3.77-0.47
		c0.07-2.83-0.07-5.73,0.08-8.58C440.87,54.51,442.69,54.51,444.51,54.51z"/>
	<path class="st21" d="M374.51,60.51c0.81,0,1.63,0,2.46,0c1.22,1.01,0.1,2.46,0.75,3.71c0.98,0.84,2.42-0.19,3.72,0.65
		c0.04,0.65,0.09,1.42,0.14,2.22c1.07,1.02,2.5-0.03,3.65,0.61c0.58,1.07,0.17,2.22,0.04,3.56c-20.08,0.25-39.92,0.25-59.75,0.25
		c0-1.16,0-2.32,0-3.55c-1.43-1.02-3.17-0.05-5-0.75c0-1.97,0-4.09,0.25-6.45C338.84,60.51,356.68,60.51,374.51,60.51z"/>
	<path class="st22" d="M320.51,50.51c0-2.11,0-4.22,0-6.33c1.74-1.54,1.74-1.54,3.91-2.08c0.08-0.77,0.15-1.54,0.23-2.28
		c1.13-0.59,2.27-0.2,3.87-0.31c18,0,35.5,0,53,0c-0.15,1.07,0.24,2.13-0.61,3.21c-0.92,1.16-2.13,0.47-3.08,0.98
		c-0.63,0.7-0.14,1.56-0.32,2.33c-0.7,1-1.87,0.1-2.71,0.69c-0.59,1.03-0.16,2.19-0.53,3.54C356.18,50.51,338.34,50.51,320.51,50.51
		z"/>
	<path class="st23" d="M413.51,53.51c-0.5,0-1,0-1.87,0c-0.27-2.54-0.05-5.11-0.14-7.6c1.26-0.7,2.43-0.25,3.88-0.49
		c0-4.15,0-8.39,0-12.79c1.45,0,2.56,0,4.02,0c0-2.72,0-5.3,0-8.01c1.45-0.07,2.57-0.13,4.03-0.21c0-2.53,0-5.11,0-7.79
		c3.12,0,5.89,0,9.02,0c0,2.52,0,5.1,0,7.77c1.45,0.07,2.57,0.13,3.88,0.19c0,2.46,0,4.91,0,7.18c1.21,1.4,2.69,0.3,4.02,0.99
		c0,3.99,0,8.1,0,12.05c1.21,1.34,2.69,0.25,4.18,1.05c0,2.25,0,4.7-0.25,7.4c-3.02,0.25-5.79,0.25-8.87,0.25c0-2.85,0-5.41,0-7.9
		c-5.41,0-10.49,0-15.88,0c0,2.69,0,5.3-0.25,7.9C417.18,53.51,415.34,53.51,413.51,53.51z M423.51,37.01c0,1.45,0,2.9,0,4.26
		c2.89,0,5.45,0,7.85,0c0-3.02,0-5.79,0-8.65c-2.25,0-4.36,0-6.43,0C423.65,33.43,423.26,34.58,423.51,37.01z"/>
	<path class="st24" d="M325.51,71.76c19.83-0.25,39.67-0.25,59.75-0.25c0.25,0.81,0.25,1.63,0.25,2.49
		c-1.03,1.13-2.45,0.12-3.9,0.76c0,2.03,0,4.25,0,6.31c-1.35,0.73-2.5,0.32-4.1,0.44c-15.67,0-30.83,0-46,0c-0.81,0-1.62,0-2.72,0
		c-0.6-2.12-0.1-4.36-0.31-6.55c-0.7-0.97-1.86-0.06-2.72-0.69C325.21,73.62,325.64,72.77,325.51,71.76z"/>
	<path class="st25" d="M320.51,50.76c17.83-0.25,35.67-0.25,53.75-0.25c0.25,3.17,0.25,6.33,0.25,9.75
		c-17.83,0.25-35.67,0.25-53.75,0.25C320.51,57.34,320.51,54.18,320.51,50.76z"/>
	<path class="st23" d="M479.51,38.51c0-3.16,0-5.83,0-8.51c0.47-0.46,0.94-0.93,1.47-1.45c5.92,0,11.9,0,17.9,0
		c2.1,0.92,1.68,2.87,1.57,4.51c1.28,0.76,2.46,0.29,3.82,0.49c0,5.19,0,10.42,0,15.84c-1.08,0-2.2,0-3.16,0
		c-1.21,1.25-0.05,2.75-0.98,4.05c-3.66,0-7.44,0-11.57,0c0,2.73,0,5.31,0,7.97c-3.13,0-5.92,0-9.04,0
		C479.51,53.9,479.51,46.46,479.51,38.51z M492.01,49.51c1.46,0,2.91,0,4.5,0c0-2.97,0.04-5.61-0.01-8.25
		c-0.05-2.59,0.2-5.2-0.11-7.58c-2.83,0-5.28,0-7.87,0c0,2.8-0.04,5.44,0.01,8.07c0.05,2.59-0.2,5.21,0.14,7.76
		C489.68,49.51,490.35,49.51,492.01,49.51z"/>
	<path class="st26" d="M449.76,29.76c6.58-0.25,12.9-0.25,19.26-0.25c1.12,1.05,0.02,2.54,0.78,3.86c1.02,0,2.13,0,3.48,0
		c0,5.4,0,10.63,0,16.03c-1.11,0.06-2.23,0.12-3.36,0.18c-0.99,1.09,0.13,2.58-0.81,3.88c-3.65,0-7.44,0-11.41,0
		c0,2.6,0,5.06,0,7.81c-2.71,0.51-5.3,0.05-8.19,0.33C449.51,50.89,449.51,40.45,449.76,29.76z M457.51,45.01c0,1.46,0,2.91,0,4.53
		c2.9-0.11,5.48,0.13,7.83-0.14c0-5.53,0-10.63,0-15.91c-2.73,0.1-5.3-0.13-7.83,0.15C457.51,37.37,457.51,40.69,457.51,45.01z"/>
	<path class="st23" d="M468.51,76.51c0-3.17,0-5.83,0-8.75c2.89,0,5.79,0,8.85,0c0,7.74,0,15.52,0,23.53c-6.81,0-13.71,0-20.75,0
		c-0.06-1.16-0.12-2.28-0.18-3.39c-1.08-0.78-2.27-0.23-3.73-0.44c-0.43-6.49-0.06-13.06-0.23-19.78c2.65,0,5.11,0,7.92,0
		c0,6.43,0,13,0,19.7c1.47,0,2.58,0,3.78,0c0.86-1.06-0.02-2.51,0.53-3.84c1.22,0,2.34,0,3.81,0
		C468.51,81.26,468.51,79.13,468.51,76.51z"/>
	<path class="st23" d="M542.51,45.51c2.49,0,4.49,0,6.55,0c0.81,1.16,0.42,2.43,0.31,3.86c-1.15,0-2.27,0-3.22,0
		c-1.28,1.24-0.12,2.73-0.95,4.01c-5.35,0-10.79,0-16.34,0c-0.98-0.97,0.18-2.47-0.69-3.77c-1-0.06-2.12-0.12-3.44-0.19
		c0-5.21,0-10.44,0-15.8c1.16-0.06,2.27-0.13,3.39-0.19c0.76-0.87,0.35-1.9,0.38-2.84c0.03-1.01,0.96-1.27,1.39-1.99
		c4.76,0,9.53,0,14.01,0c2.25,1.08,1.4,2.97,1.7,4.5c1.09,1.01,2.58-0.12,3.81,0.76c0,2.36,0,4.81,0,7.59c-5.21,0-10.44,0-15.78,0
		c0,2.78,0,5.22,0,7.86c2.43,0,4.87,0,7.6,0C542.34,48.46,540.71,46.59,542.51,45.51z M540.01,37.51c0.46-0.06,1.01,0.21,1.39-0.43
		c0.04-1.15,0.5-2.43-0.24-3.39c-2.64,0-5.08,0-7.96,0c0.78,1.37-0.36,2.72,0.8,3.83C535.7,37.51,537.36,37.51,540.01,37.51z"/>
	<path class="st27" d="M331.51,81.76c15.17-0.25,30.33-0.25,45.75-0.25c0.25,1.16,0.25,2.33,0.25,3.49
		c-0.69,1.04-1.89,0.12-2.87,0.83c0,0.99,0,2.11,0,3.09c-1.25,1.18-2.72,0.19-4,0.79c-0.08,0.82-0.15,1.61-0.24,2.6
		c-3.21,0-6.44,0-9.72,0c-0.1-0.85-0.19-1.64-0.31-2.61c-3.42,0-6.86,0-10.63,0c-0.79,0.47,0.13,1.67-0.51,2.64
		c-2.99,0-6.11,0-9.47,0c-0.77-0.52,0.12-1.72-0.52-2.7c-1.05,0-2.16,0-3.49,0c-0.05-2.65-0.84-4.6-3.83-4.14
		C331.17,84.3,331.65,83.12,331.51,81.76z"/>
	<path class="st28" d="M419.51,53.51c0-2.6,0-5.21,0-7.9c5.38,0,10.47,0,15.88,0c0,2.49,0,5.05,0,7.9c3.09,0,5.85,0,8.87,0
		c0.25,0,0.25,0.5,0.25,0.75c-1.82,0.25-3.64,0.25-5.94,0.25c-0.15,2.84-0.01,5.75-0.08,8.58c-1.15,0.8-2.33,0.27-3.77,0.47
		c0,2.48,0,5.03,0,7.76c-2.89,0-5.45,0-8.16,0c0-2.54,0-4.98,0-7.3c-1.25-1.07-2.72,0-4-0.91c0-2.32,0-4.77,0-7.07
		c-0.87-0.74-1.34-1.78-2.8-1.78C419.51,54.01,419.51,53.51,419.51,53.51z"/>
	<path class="st29" d="M529.51,91.51c-1.16,0-1.83,0-2.53,0c-1.09-1.06-0.01-2.55-0.77-3.87c-1.02,0-2.13,0-3.48,0
		c0-5.39,0-10.62,0-16.04c1.1-0.05,2.22-0.11,3.36-0.16c1.02-1.08-0.12-2.57,0.76-3.82c5.36,0,10.8,0,16.28,0
		c0.94,1.07-0.16,2.55,0.79,3.85c0.99,0,2.11,0,3.14,0c0.8,1.22,0.3,2.4,0.5,3.9c-2.59,0.29-5.16,0.06-7.65,0.15
		c-0.7-1.26-0.25-2.43-0.47-3.78c-2.51,0-5.08,0-7.79,0c0,5.09,0,10.2,0,15.54c2.46,0,5.02,0,7.75,0c0.06-1.12,0.12-2.24,0.2-3.56
		c2.55,0,5.11,0,7.8,0c0,1.18,0,2.3,0,3.43c-1.05,0.74-2.24,0.2-3.39,0.37c-1.13,1.03-0.04,2.51-0.85,3.99
		C538.9,91.51,534.46,91.51,529.51,91.51z"/>
	<path class="st20" d="M509.51,30.51c0-4.49,0-8.48,0-12.53c0.45-0.42,0.94-0.87,1.46-1.36c2.37,0,4.82,0,7.4,0
		c0,12.2,0,24.3,0,36.64c-2.75,0-5.65,0-8.86,0C509.51,45.88,509.51,38.45,509.51,30.51z"/>
	<path class="st2" d="M490.51,83.51c0-1.16,0-2.32,0-3.48c-1.04-1.19-2.52-0.09-3.68-0.66c-0.63-1.09-0.18-2.26-0.34-3.41
		c-1.06-1.06-2.53,0.01-3.71-0.66c-0.56-1.06-0.19-2.21-0.24-3.25c0.81-1.6,2.38-1.49,3.87-1.78c0.06-1.15,0.11-2.27,0.18-3.57
		c4.25,0,8.46,0,12.81,0c0.06,1.18,0.12,2.29,0.19,3.47c1.21,0.65,3.05-0.04,3.83,1.95c0,0.85,0,1.96,0,3.39
		c-2.52,0-4.97,0-7.66-0.25c-0.25-1.35-0.25-2.44-0.25-3.55c-1.83,0-3.37,0-4.83,0c-0.56,1.81,0.13,2.93,1.43,3.8
		c1.13,0,2.27,0,3.4,0c0,1.16,0,2.32,0,3.52c1.06,1.1,2.54,0.03,3.86,0.76c0,1.02,0,2.14,0,3.11c1.25,1.21,2.71,0.2,3.83,0.73
		c0.56,1.19,0.27,2.33,0.24,3.47c-1.08,1.02-2.57-0.12-3.84,0.78c-0.05,1.01-0.11,2.13-0.18,3.44c-4.25,0-8.47,0-12.82,0
		c-0.06-1.2-0.11-2.32-0.16-3.39c-1.09-0.88-2.31-0.07-3.67-0.7c-0.64-0.86-0.21-2.14-0.13-3.72c2.47,0,4.91,0,7.61,0.25
		c0.39,1.36-0.09,2.54,0.57,3.6c3.26,0.05,4.68-0.55,4.68-2.31c-0.49-0.31-1.18-0.74-2.44-1.54
		C492.84,83.51,491.67,83.51,490.51,83.51z"/>
	<path class="st30" d="M381.51,39.26c-17.5,0.25-35,0.25-52.75,0.25c-0.25-1.16-0.25-2.32-0.25-3.7c2.14-0.79,4.48,0.09,6.7-0.47
		c0.62-1.05,0.17-2.22,0.34-3.58c3.51,0,7.07,0,10.7,0c0.57,0.98,0.12,2.15,0.3,3.5c5.5,0,11.05,0,16.7,0
		c0.61-0.94,0.11-2.12,0.3-3.51c1.64-0.56,3.45-0.14,5.2-0.22c1.8-0.08,3.61-0.02,5.35-0.02c0.76,1.19,0.27,2.37,0.45,3.72
		c2.11,0.76,4.44-0.1,6.66,0.45C381.84,36.73,381.38,37.9,381.51,39.26z"/>
	<path class="st26" d="M508.51,79.51c0-4.16,0-7.81,0-11.87c2.53-0.28,5.1-0.05,7.83-0.15c0,7.96,0,15.72,0,23.91
		c-2.36,0.26-4.94,0.03-7.83,0.14C508.51,87.57,508.51,83.79,508.51,79.51z"/>
	<path class="st30" d="M360.76,25.76c-0.25,1.24-0.25,2.24-0.25,3.26c-1.05,1.11-2.52,0.04-3.67,0.66
		c-0.22,0.57-0.44,1.14-0.67,1.74c-2.13,0-4.24,0-6.5,0c0-2.19,0-4.3,0-6.59c0.92-0.91,2.37,0.07,3.47-0.42
		c0.75-0.79,0.16-1.67,0.43-2.47c0.67-0.97,1.88,0,2.83-0.79c0-0.98,0-2.09,0-3.42c2.38,0,4.61,0,6.93,0
		c0.59,1.93-0.63,4.26,1.31,5.61C363.87,25.27,362.64,25.78,360.76,25.76z"/>
	<path class="st31" d="M511.51,54.51c1.82,0,3.13,0,4.45,0c1.88,2.33,1.88,2.33,0.24,4.87c-2.33,0-4.76,0-7.45,0
		c-0.49-1.39-0.18-2.97-0.18-4.46C509.38,54.19,510.24,54.65,511.51,54.51z"/>
	<path class="st32" d="M419.26,53.51c0.25,0,0.25,0.5,0.25,0.75c-1.83,0.25-3.67,0.25-5.75,0.25c-0.25,0-0.25-0.5-0.25-0.75
		C415.34,53.51,417.18,53.51,419.26,53.51z"/>
	<path class="st33" d="M91.51,70.51c0,1.17,0,1.83,0,2.47c-0.37,0.73-1.2,0.35-1.88,0.86c0,0.99,0,2.1,0,3
		c-0.9,1.16-2.09,0.29-2.95,0.86c-0.1,0.85-0.19,1.64-0.22,1.9c-3.05,3.03-5.8,5.77-8.88,8.83c-0.4,0-1.38,0-2.37,0
		c-0.84,0.98-0.93,2.43-2.23,3.06c-1.61,0-3.27,0-4.89,0c-0.77,0.37-0.47,1.16-0.82,1.85c-4.73,0-9.51,0-14.46,0
		c-0.14-0.42-0.35-1-0.61-1.75c-1.72,0-3.5,0-4.94,0c-1.47-0.76-1.66-1.94-2.17-3.12c-1.07,0-2.19,0-2.5,0
		c-3.28-3.19-6.06-5.9-9.06-8.82c0-0.26,0-0.92,0-1.53c-0.66-1.18-1.87-0.25-2.73-0.81c-0.63-1.02-0.15-2.2-0.32-3.44
		c-0.53-0.18-1.11-0.38-1.86-0.64c0-2.05,0-4.17,0-6c-0.5-0.8-1.01-0.73-1.86-0.73c-0.55-4.85-0.09-9.74-0.27-14.37
		c0.46-0.8,1.01-0.58,1.83-0.67c0.1-1.83,0.21-3.74,0.32-5.76c0.48-0.1,0.94-0.19,1.5-0.31c0.86-0.91,0.16-2.13,0.44-3.51
		c3.95-2.65,6.81-6.83,10.85-10.02c0.06-0.54,0.15-1.33,0.26-2.28c1.51,0,2.96,0,4.11,0c0.83-0.5,0.69-1.03,0.73-1.79
		c1.76-0.75,3.78,0.06,5.63-0.44c0.23-0.57,0.47-1.14,0.72-1.75c4.77,0,9.56,0,14.3,0c0.25,0.68,0.46,1.26,0.67,1.85
		c1.73,0,3.38,0,4.89,0c0.92,0.34,0.74,1.08,0.88,1.85c1.44,0,2.89,0,4.04,0c1.4,0.86,0.47,2.06,0.75,2.47
		c4.33,3.06,6.77,7.5,11.1,10.01c0,1.15,0,2.27,0,3.32c0.75,0.28,1.33,0.49,2.06,0.76c0,1.8,0,3.59,0,5.4
		c0.62,0.13,1.07,0.22,1.73,0.36c0,4.72,0,9.5,0,14.73c-0.12,0.29-0.88,0.06-1.45,0.24C91.17,67.71,91.65,68.89,91.51,70.51z
		 M67.01,43.51c-9.1,0-18.21,0-26.91,0c-1.56,1.89-2.55,3.63-4.51,4.42c-0.06,1.12-0.32,2.26,0.22,3.46c2.41,0,4.85,0,7.4,0
		c0.19-0.54,0.4-1.12,0.64-1.79c10.73,0,21.5,0,32.34,0c0.21,0.57,0.42,1.14,0.69,1.89c1.05,0,2.17,0,3.21,0
		c0.3,0.75,0.52,1.32,0.76,1.91c1.13,0,2.25,0,3.51,0c0-1.88,0-3.66,0-5.47c-1.29-0.21-2.09-1.02-2.35-2.57c-1.09,0-2.21,0-3.21,0
		c-0.45-0.69-0.1-1.5-0.85-1.86C74.66,43.51,71.34,43.51,67.01,43.51z M45.01,58.51c8.77,0,17.54,0,26.22,0
		c0.2,0.75,0.31,1.2,0.43,1.67c1.45,0.96,3.24-0.29,4.69,0.67c0.12,0.47,0.24,0.92,0.45,1.73c1.14-0.37,2.4,0.44,3.58-0.41
		c0-1.17,0-2.29,0-3.4c-1.39-0.11-1.91-0.96-2.22-2.23c-1.07,0-2.19,0-3.31,0c-1.5-0.51-1.02-2.11-1.75-2.92
		c-11.11,0-22.21,0-33.2,0c-0.93,0.85,0.18,2.1-0.8,2.81c-0.58,0.15-1.33-0.07-1.6,0.78c0.21,1.05-0.47,2.27,0.33,3.16
		c1.91,0,3.69,0,5.4,0C43.54,59.64,43.78,59.08,45.01,58.51z M58.01,66.51c3.12,0,6.23,0,9.34,0c0.12,1.12,0.21,1.91,0.29,2.64
		c1.17,0.9,2.67-0.22,3.76,0.75c0.11,0.45,0.22,0.9,0.33,1.39c1.59,0,3.16,0,4.63,0c0-1.67,0-3.13,0-4.46
		c-0.95-0.73-2.15,0.22-2.84-0.8c-0.09-0.47,0.2-1.03-0.31-1.33c-1.19-0.64-2.68,0.47-3.7-0.71c-0.04-0.52,0.14-1.06-0.41-1.38
		c-9.1,0-18.2,0-27.29,0c-0.24,1.26-0.86,2.01-2.24,2.18c-0.04,1.56-0.29,3.15,0.14,4.56c2.38,0,4.5,0,6.5,0
		c0.69-0.96-0.24-2.16,0.82-2.84C50.36,66.51,53.68,66.51,58.01,66.51z"/>
	<path class="st3" d="M143.51,80.51c0,1.5,0,2.5,0,3.82c-2.54,0.42-5.12,0.02-8.14,0.28c0.98-7.32-1.06-14.19-0.88-21.21
		c0.11-4.15,0.02-8.3,0.02-12.67c6.83,0,13.59,0,20.75,0c1.07,0.58,1.4,1.94,1.38,3.45c0.74,0.67,1.67,0.05,2.37,0.39
		c0.57,0.28,0.96,0.9,1.38,1.32c0,5.17,0,10.28,0,15.52c-1.24,0.07-2.36,0.13-3.46,0.19c-0.99,1.13,0.13,2.62-0.86,3.9
		c-3.98,0-8.1,0-12.56,0C143.51,77.09,143.51,78.55,143.51,80.51z M151.51,57.01c-0.15-0.78,0.34-1.65-0.47-2.51
		c-2.44,0.09-5.01-0.15-7.36,0.12c0,5.87,0,11.31,0,16.98c2.73-0.29,5.31,0.2,7.83-0.3C151.51,66.64,151.51,62.33,151.51,57.01z"/>
	<path class="st29" d="M106.51,42.51c1.94,0.27,3.09-0.17,3.92-1.45c0.06-1.08,0.12-2.2,0.19-3.43c5.58,0,11.03,0,16.52,0
		c0.95,1.05-0.17,2.54,0.74,3.79c1.02,0.05,2.14,0.1,3.44,0.16c0,1.49,0,2.94,0,4.83c-2.68,0.21-5.59,0.03-8.41,0.1
		c-0.72-1.24-0.25-2.42-0.46-3.77c-2.51,0-5.08,0-7.8,0c0,3.75,0,7.53,0,11.65c4.12,0,8.36,0,12.73,0c0.08,1.45,0.14,2.57,0.2,3.7
		c1.09,0.99,2.58-0.13,3.81,0.76c0,4.03,0,8.14,0,12.27c-1.05,0.76-2.24,0.2-3.39,0.37c-1.15,1.03-0.04,2.51-0.67,3.66
		c-5.31,2.23-10.9,1-16.27,1.35c-0.79-0.55-0.52-1.26-0.55-1.89c-0.03-0.63-0.01-1.26-0.01-2.02c-1.37-0.08-2.48-0.14-3.8-0.21
		c0-1.57,0-3.14,0-4.81c2.88,0,5.66,0,8.44,0c0.7,1.09,0.21,2.27,0.41,3.79c2.48,0.25,5.06,0.01,7.79,0.15c0-4,0-7.78,0-11.9
		c-4.08,0-8.32,0-12.72,0c0-1.46,0-2.57,0-3.56c-1.26-1.15-2.72-0.18-3.96-0.75c-0.49-2.71,0.18-5.45-1.03-8.11
		C105.08,45.99,105.01,44.02,106.51,42.51z"/>
	<path class="st29" d="M240.51,66.51c-1.72,0.25-2.19-0.8-2.89-1.39c0-5.13,0-10.24,0-15.48c2.89,0,5.67,0,8.79,0
		c0,5.15,0,10.38,0,15.5c1.43,0.58,2.56,0.34,4.02,0.28c0-5.21,0-10.45,0-15.79c3.11,0,5.89,0,8.87,0c0,5.53,0,11.09,0,16.78
		c-1.18,0.06-2.3,0.12-3.41,0.18c-0.87,1.16-0.08,2.58-0.54,3.91c-1.29,0-2.4,0-3.69,0c0,2.61,0,5.06,0,7.37
		c-1.23,1.26-2.72,0.18-4.04,0.94c0,1.02,0,2.13,0,3.08c-0.64,0.64-1.11,1.11-1.49,1.49c-3.88,0-7.65,0-11.53,0
		c0-1.59,0-3.04,0-4.67c2.45,0,4.9,0,7.78,0c0.04-2.08,0.09-3.99,0.11-5.91c0.02-1.97,0-3.95,0-5.65
		C242.03,66.29,241.47,66.57,240.51,66.51z"/>
	<path class="st3" d="M167.51,73.51c0.02-1.15,0.14-1.87-0.79-1.99c-0.78-0.1-1.66,0.27-2.27-0.55c-0.2-0.26-0.46-0.47-0.82-0.83
		c0-4.98,0-10.08,0-15.25c1.03-0.95,2.48-0.02,3.6-0.46c0.7-1.58-0.5-3.58,1.85-4.75c4.68,0,9.79,0,15.09,0
		c1,0.87-0.1,2.35,0.45,3.47c1.1,0.76,2.3,0.06,3.64,0.58c0,5.34,0,10.9,0,16.52c-1,0.56-2.17,0.11-3.29,0.29
		c-1.09,1.06-0.07,2.53-0.51,3.53c-5.16,2.35-10.41,1.12-15.41,1.48C168.45,74.95,167.98,74.48,167.51,73.51z M172.51,70.01
		c2.67,0.95,5.34,0.43,7.82,0.33c0-5.48,0-10.58,0-15.92c-2.73,0.3-5.31-0.21-7.82,0.31C172.51,59.71,172.51,64.36,172.51,70.01z"/>
	<path class="st20" d="M228.51,36.51c2.17,0,3.83,0,5.59,0c0.89,1.51,0.11,3.13,0.56,4.88c-1.46,0-2.58,0-3.92,0
		c0,2.74,0,5.3,0,8.02c1.14,0.06,2.26,0.13,3.5,0.2c0.44,1.24,0.37,2.47,0.05,3.9c-1.2,0-2.32,0-3.6,0c0,6.95,0,13.73,0,20.77
		c-2.73,0-5.29,0-8.02,0c0-10.73,0-21.5,0-32.43c0.99-0.76,2.97,0.21,3.54-1.43c0.78-1.34-0.31-2.83,0.78-3.9
		C227.34,36.51,227.68,36.51,228.51,36.51z"/>
	<path class="st3" d="M192.51,42.51c0.47-0.97,0.94-1.44,1.37-1.87c2.15,0,4.27,0,6.25,0c0.48,0.48,0.83,0.83,1.35,1.35
		c0,2.28,0,4.72,0,7.09c1.22,0.76,2.4,0.29,3.59,0.44c0.78,1.16,0.41,2.43,0.28,3.85c-1.15,0-2.26,0-3.62,0c0,5.73,0,11.28,0,17.02
		c1.1,0,2.21,0,3.33,0c0.65,1.38,0.5,2.62,0.23,3.99c-2.5,0-4.94,0-7.45,0c-0.76-1-0.16-2.2-0.39-3.46
		c-1.24-1.19-3.72,0.62-4.96-2.44C192.51,60.54,192.51,51.78,192.51,42.51z"/>
	<path class="st31" d="M208.51,71.51c0-7.48,0-14.46,0-21.89c2.86-0.24,5.76-0.05,8.83-0.13c0,8.39,0,16.61,0,24.92
		c-2.92,0-5.7,0-8.46,0C208.17,73.66,208.66,72.79,208.51,71.51z"/>
	<path class="st34" d="M208.51,39.51c0-1.16,0-1.82,0-2.95c2.87-0.12,5.76-0.01,8.83-0.06c0,1.6,0,3.05,0,4.93
		c-2.69,0.19-5.59,0.03-8.2,0.09C208.3,41.02,208.57,40.47,208.51,39.51z"/>
	<path class="st13" d="M630.51,72.51c1.55,1.2,1.26,2.59,0.45,4.06c-0.29,0.54-0.48,1.13-0.72,1.7c-6.29,2.55-6.29,2.55-13.53,0.94
		c-1.74-1.31-1.64-3.75-3.21-5.23c0-0.78-0.11-1.62,0.02-2.43c0.97-6.08-1.85-10.56-5.99-14.52c-0.6-0.58-1.18-1.18-1.81-1.81
		c-0.33-4.12-1.57-8.15-1.31-12.44c0.15-2.44,1.14-4.6,1.4-6.98c0.23-2.13,1.98-3.51,4.08-4.25c2.98,0,5.97,0,9.26,0
		c0.34,0.45,0.84,1.11,0.99,1.31c1.58,0.97,2.76,0.5,3.87,0.64c0.59-0.59,1.18-1.18,1.88-1.88c3.33,0,6.78,0,10.23,0
		c1.41,1.42,2.83,2.83,4.24,4.24c0.49,1.47-0.6,3.44,2.14,4.71c6.3-0.5,13.34-2.48,21.15,0.61c0.04,0.04,0.89,0.76,1.49,1.28
		c2.86,0.27,4.4-2.36,7.05-2.03c2.46,0.31,4.99,0.07,7.49,0.07c1.49,0.82,2.87,1.9,4.65,2.03c1.46,0.04,1.61-1.61,3.44-2.03
		c1.24,0,3.24,0,5.24,0c0.55-0.61,1.09-1.25,2.06-1.06c0.71-0.66,0.32-1.97,1.43-2.42c0-3.32,0-6.65,0-9.99
		c1.84-1.4,2.2-4.05,4.24-5.22c2.58-1.49,4.36-3.91,6.69-5.6c2.54-1.84,5.55-2.75,8.85-2.75c21.49,0.06,42.97,0.03,64.46,0.03
		c10.33,0,20.65,0,30.98,0c2.17,0,4.33,0.06,6.5-0.02c2.11-0.08,3.8,1.81,5.88,0.93c3.69,4.92,9.93,6.88,12.42,13.13
		c0,4.29,0.17,9.13-0.06,13.95c-0.15,3.13,1.7,5.91,1.08,9.09c-2.2,11.44-0.35,23.02-1.19,34.58c-3,3-6.11,6.02-9.11,9.14
		c-2.69,2.78-5.98,4.17-9.76,4.17c-33.98,0.04-67.96,0.04-101.94-0.01c-3.77-0.01-7.1-1.36-9.75-4.19
		c-1.48-1.58-3.02-3.11-4.59-4.59c-2.36-2.22-4.62-4.46-4.98-7.95c-0.04-0.39-0.66-0.71-1.19-1.24c-4.29,0-8.77-0.08-13.24,0.02
		c-5.03,0.11-9.5-1.06-12.78-5.09c-1.79,0.62-3.37,1.28-4.58,2.64c-0.63,0.71-5.01,2.42-5.98,2.42c-3.66,0.02-7.33-0.08-10.99,0.04
		c-1.68,0.06-2.82-1.62-4.5-1.12c-1.68-1.68-3.32-3.34-4.98-4.98c-1.68-1.65-2.6-3.55-2.46-5.99c0.13-2.28,0.03-4.57,0.03-6.65
		c-1.68-0.81-2.03,0.51-2.97,1c0,2.44,0,4.89,0,7.03c-0.51,0.89-1.06,0.61-1.78,0.42c-0.25-3.23-0.25-6.21-0.25-9.4
		c1.95-0.69,1.74-3.24,3.44-4.3c1.43-0.28,2.62,0.01,3.55,1.56c0.01,3.97-0.01,8.19,0.01,12.39c1,0,1.49,0,1.99,0.25
		c-0.3,1.42,0.59,2.07,1.31,2.48c0.99,0.56,0.27,1.87,1.28,2.27c0.47,0,0.94,0,1.66,0c0.75,0,1.25,0,1.75,0.25c0,0.58,0,0.91,0,1.63
		c2.7-0.49,4.97,1.23,7.76,1.23c2.93-0.01,5.43-1.49,8.24-1.26c0-0.86,0-1.36,0.25-1.85c1.25,0.26,1.72-0.5,2.31-1.05
		c1.73-1.63,3.72-2.39,5.23-2c2.42,1.03,2.85,3.53,5.46,3.06c0.25,0,0.75,0,0.75,0.25c0,0.58,0,0.91,0,1.24
		c7.16,2.6,14.44,1.47,21.38,0.39c1.03,1.03,1.73,1.73,2.37,2.37c0.89,1.16-0.87,3.08,1.25,4c0.95,2.54,2.22,4.49,5,5
		c0.55,2.32,1.58,3.82,4,4c1.04,0.72,0.79,1.95,1.44,2.7c37.03,0,74.09,0,111.1,0c0.92-0.82,1.86-1.57,1.71-2.95
		c2.53-0.72,4.5-1.71,5.81-3.98c1.34-2.32,3.16-4.36,4.89-6.68c0-17.49,0-35.21,0-52.91c-1.02-0.49-1.98-0.96-2.95-1.67
		c-0.41-3.81-4.02-5-5.35-7.75c-1,0-1.82,0-2.65-0.25c-0.33-0.42-0.67-0.58-1-1c-0.47-0.72-0.94-1.19-1.41-1.66
		c-23.96-0.55-110.95-0.22-111.59,0.41c0,0.5,0,1-0.25,1.5c-1.08,0.84-2.13,1.56-2,3c-0.98-0.01-1.77-0.11-1.75,1.25
		c0,0.25,0,0.75-0.25,0.75c-0.99,0.52-0.69,1.31-1,2c-0.42,0.33-0.58,0.67-1,1c-1.09,0.31-2.51-0.8-3,1
		c-1.47,4.17-0.23,8.48-0.9,12.58c-1.01,1.51-3.24,2.11-3.1,4.42c-1.71,0-3.17-0.07-4.62,0.02c-1.38,0.08-2.85-0.43-4.13,0.41
		c0,0.6,0,1.09-0.25,1.58c-0.58,0-0.91,0-1.24,0c-2.55,6.48-0.98,13.37-1.71,20.05c-0.76-0.12-1.31,0.17-1.79-0.68
		c0-4.34-0.09-8.95,0.04-13.56c0.06-2.15-0.39-4.05-1.55-5.82c-0.5,0-0.99,0-1.49-0.25c-0.06-0.71,0.21-1.26-0.62-1.75
		c-2.62,0.06-5.51-0.1-8.38,0.1c0,0.91,0,1.41-0.25,1.91c-2.42,0-4.58,0-6.75-0.25c-0.14-1.02,0.31-1.87-0.31-2.6
		c-0.82-0.21-1.62-0.42-1.94,0.85c-5.5,0-10.75-0.01-16,0.01c-0.72,0-1.75-0.36-2,0.99c-1.77-0.26-2.9,2.15-4.74,0.52
		c0-2.64,0-5.39,0-7.99c-0.89-1.04-1.65-1.91-3.01-1.78c-3-1.29-6-0.64-9-0.62c0,0.88,0,1.38-0.25,1.87
		c-0.71,0.06-1.26-0.21-1.73,0.58c0,3.19,0,6.61,0,9.92c-0.85,0.71-1.31,1.76-2.84,1.42c-0.61-4.22,0.67-8.86-1.71-12.93
		c-0.82,0-1.65,0-2.47-0.25c-0.86-1.23-2.01-0.55-3-1c0.09-2.13-0.79-2.01-2-1.36c0,0.62,0,1.11-0.25,1.61
		c-1.36,0.13-2.54-0.34-3.75,0.41c0,5.39,0,10.84,0,16.3c0,0.68,0.02,1.36,1,1.54c0.55,2.32,1.58,3.82,4,4
		c-0.69,2.81,2.38,3.61,2.3,5.75c0.75,0,1.23,0,1.7,0.25c0,2.21-0.04,4.16,0.01,6.12c0.05,1.89-0.24,3.81,0.24,5.63
		c0.77,0,1.26,0,1.75,0.25c0.06,0.71-0.21,1.26,0.18,1.49c2.06,0,3.95,0,5.82,0c0-0.75,0-1.25,0.25-1.74c0.25,0,0.75,0,1,0
		c1.81,0.05,2.4-0.96,2.75-2.25C629.65,72.77,629.91,72.4,630.51,72.51z"/>
	<path class="st35" d="M630.51,72.26c-0.6,0.14-0.86,0.51-1,1c-0.35,1.3-0.94,2.31-2.75,2c-0.25-6.02-0.25-11.79-0.25-17.43
		c1.82-0.73,3.56,0.25,4.99-0.75c0.15-1.18-0.32-2.36,0.32-3.4c1.18-0.61,2.67,0.53,3.69-0.71c0-5.49,0-10.97,0-16.45
		c1.36-0.37,2.12,0.5,3.01,1.53c0,2.6,0,5.35,0,7.99c1.84,1.63,2.97-0.78,4.74-0.27c0.1,1.03,0.59,1.9,0.14,2.38
		c-1.37,0.88-2.87-0.32-3.89,0.89c0,7.18,0,14.33,0,21.47c-0.5,0-0.99,0-1.99,0c-0.03-4.2,0-8.42-0.01-12.39
		c-0.93-1.55-2.13-1.84-3.55-1.56c-1.7,1.06-1.5,3.61-3.44,4.3c0,3.19,0,6.17,0,9.4C630.51,71.01,630.51,71.51,630.51,72.26z"/>
	<path class="st36" d="M498.51,174.51c-1.66,0.18-0.73,1.5-1.17,2.76c-0.8,0.65-1.95,1.58-2.84,2.31c0,1.47,0,2.46,0,3.45
		c-3.66,1.08-3.86,4.16-4.15,7.29c-0.46,0.09-0.91,0.19-1.49,0.31c-0.72,0.55-0.21,1.46-0.46,2.69c-0.84,0.68-1.99,1.61-2.88,2.33
		c-0.22,4.54-0.94,6.21-3.45,8.69c-12.94,0-25.69,0-38.32,0c-0.87-1.38,0.62-1.79,0.76-2.71c0.35-2.23,2.49-3.49,3.07-5.72
		c0.47-1.82,1.34-3.71,3.47-4.47c0.54-0.19,0.36-0.83,0.46-1.29c1.01-4.4,4.91-7.6,5.17-12.32c2.74-0.51,1.31-3.49,3-4.63
		c1.45-1.05,3.06-1.76,5.1-1.74c10.81,0.12,21.62,0.05,32.42,0.07c0.78,0,1.67-0.32,2.04,0.74
		C498.27,173.03,498.57,173.82,498.51,174.51z"/>
	<path class="st31" d="M591.51,187.51c0.23-1.92,1.95-0.47,2.89-1.38c0.48-0.52-0.12-1.41,0.26-2.39c4.8,0,9.69,0,14.71,0
		c0.08,0.8,0.16,1.59,0.25,2.45c1.2,0.62,3.03-0.03,3.79,1.88c0,0.93,0,2.05,0,3.31c-2.21,0-4.33,0-6.55,0
		c-1.49-0.7-1.23-2.35-1.61-3.77c-2.17,0-4.28,0-6.57,0c0,4.52,0,8.97,0,13.66c2.06,0,4.3,0,6.6,0c0.64-1-0.41-2.77,1.33-3.34
		c0.79-0.79,3.22-0.52,5.45,0.57c1.11-1.07-0.06-2.57,0.81-3.88c1-0.05,2.12-0.11,3.25-0.18c1-1.09-0.13-2.58,0.81-3.87
		c3.32,0,6.77,0,10.04,0c0.91-0.85,0.38-1.74,0.55-2.51c-0.11-0.12-0.22-0.35-0.33-0.35c-3.45-0.02-6.9-0.02-10.17-0.02
		c-0.81-1.41-0.39-2.57-0.5-3.93c4.91,0,9.81,0,14.91,0c0.05,0.75,0.1,1.54,0.16,2.39c1.15,0.74,3.06-0.07,3.85,2.04
		c0,5.44,0,11.21,0,17.16c-6.18,0-12.3,0-18.66,0c-0.78-0.52,0.15-1.73-0.56-2.68c-2,0-4.12,0-6.39,0c-0.86,0.6,0.17,1.83-0.66,2.73
		c-4.67,0-9.45,0-14.29,0c-0.74-0.63-0.17-1.53-0.37-2.34c-0.64-1.24-2.27,0.13-2.98-1.53
		C591.51,196.51,591.51,192.01,591.51,187.51z M620.51,198.01c0.13,1.11-0.33,2.28,0.25,3.24c2.32,0,4.54,0,6.58,0
		c0-2.37,0-4.48,0-6.49c-2.4,0-4.62,0-6.83,0C620.51,195.68,620.51,196.35,620.51,198.01z"/>
	<path class="st31" d="M644.51,191.51c0,4.83,0,9.16,0,13.87c-2.54,0.28-5.12,0.06-7.85,0.16c0-7.32,0-14.44,0-21.79
		c8.43,0,17,0,25.75,0c0.05,0.75,0.1,1.54,0.16,2.39c1.24,0.56,2.5,1.13,3.84,1.75c0,5.74,0,11.52,0,17.47c-2.53,0-4.98,0-7.78,0
		c0-5.74,0-11.65,0-17.3c-1.09-0.8-1.91-0.45-3.04-0.49c0,5.9,0,11.81,0,17.83c-2.79,0-5.24,0-8.04,0c0-5.87,0-11.78,0-17.78
		c-1.13,0-1.91,0-2.7,0C644.17,188.71,644.65,189.89,644.51,191.51z"/>
	<path class="st26" d="M498.51,174.76c0.06-0.94-0.24-1.73,0.75-2.25c5.17,0,10.08-0.01,15,0.01c0.77,0,1.64-0.32,2.25,0.99
		c0.33,0.67,0.67,0.83,1,1c0.23,1.91,1.93,0.49,3,1.48c0,3.14,0,6.58-0.25,10.27c-0.42,0.58-0.58,0.92-0.75,1.25c-0.5,0-1,0-2,0
		c-1.18,0.88-1.52,1.67,0,2c-0.02,1.11,0.77,1.01,1.75,1.25c0.58,0.42,0.92,0.58,1.25,0.75c0,0.5,0,1-0.25,1.75
		c-1.33,3.2-0.46,6.26-0.75,9.25c-0.5,0-1,0-2,0c-0.67,0.33-0.83,0.67-1,1c0,0.5,0,1,0,1.5c-0.26,0.17-0.53,0.48-0.79,0.48
		c-5.63,0.03-11.26,0.02-17.21,0.02C498.51,195.22,498.51,185.12,498.51,174.76z M510.01,202.51c1.11-0.13,2.29,0.33,3.5-0.41
		c0-1.9,0.02-3.87,0-5.84c-0.02-1.93-0.07-3.85-0.11-5.58c-2.85,0-5.29,0-7.89,0c0,2.14-0.02,4.11,0,6.08
		c0.02,1.93,0.08,3.85,0.11,5.75C507.02,202.51,508.01,202.51,510.01,202.51z M505.51,184.01c0.13,1.11-0.33,2.29,0.42,3.51
		c2.48-0.09,5.05,0.14,7.41-0.12c0-4.2,0-7.97,0-11.91c-2.73,0.1-5.3-0.13-7.83,0.15C505.51,178.36,505.51,180.69,505.51,184.01z"/>
	<path class="st29" d="M689.76,187.26c1.42,4.78,0.31,9.37,0.82,13.43c-0.99,1.9-2.32,1.89-3.64,1.89c-1,0.72,0.09,1.96-0.87,2.88
		c-3.28,0-6.72,0-10.51,0c0,2.72,0,5.3,0,7.95c-2.79,0-5.24,0-7.86,0c0-9.92,0-19.81,0-29.79c6.21,0,12.31,0,18.45,0
		c0.77,0.65,0.19,1.55,0.39,2.36C687.18,187.21,688.8,185.84,689.76,187.26z M675.51,196.01c0,1.79,0,3.57,0,5.57
		c2.57-0.23,4.82,0.2,6.83-0.27c0-4.77,0-9.21,0-13.86c-2.4,0.21-4.65-0.22-6.83,0.3C675.51,190.36,675.51,192.69,675.51,196.01z"/>
	<path class="st20" d="M571.51,186.51c0-0.82,0-1.65,0-2.78c3.49-0.55,7.07,0.02,10.9-0.34c0-3.5,0-7.05,0-10.88
		c2.4,0,4.5,0,6.85,0.25c0.58,0.42,0.92,0.58,1.25,0.75c0,4.5,0,9-0.25,13.75c-1.31,4.78-0.63,9.35-0.56,13.9
		c0,0.12,0.53,0.23,0.81,0.35c0,0.83,0,1.67-0.25,2.75c-0.42,0.58-0.58,0.92-0.75,1.25c-5.94,0-11.87,0-17.83,0
		c-0.12-1.09-0.21-1.87-0.29-2.66c-0.73-0.68-1.6-0.19-2.63-0.59c-0.25-5.08-0.25-9.92-0.25-14.75c0.5,0,1,0,2,0
		C571.18,187.18,571.34,186.84,571.51,186.51z M576.01,201.51c2.11,0,4.22,0,6.29,0c0-4.85,0-9.39,0-13.88c-2.32,0-4.42,0-6.79,0
		C575.51,192.16,575.51,196.59,576.01,201.51z"/>
	<path class="st2" d="M519.76,202.51c0.04-2.99-0.83-6.05,0.5-9c1.4,0.44,2.38,1.52,3.87,0.9c1-1.03-0.16-2.53,0.76-3.82
		c3.32,0,6.77,0,10.03,0c1-0.83,0.33-1.74,0.66-2.42c-0.17-0.21-0.26-0.44-0.37-0.44c-3.45-0.02-6.89-0.02-10.15-0.02
		c-0.9-1.39-0.4-2.57-0.56-3.73c0.1-0.09,0.23-0.29,0.35-0.29c4.78-0.02,9.56-0.01,14.33-0.01c0.73,0.71,0.03,1.62,0.61,2.63
		c0.84,0.67,2.84-0.33,3.61,1.93c0,5.35,0,11.12,0,17.09c-6.24,0-12.47,0-18.74,0c-0.1-0.89-0.19-1.68-0.31-2.81
		C522.93,202.51,521.47,202.51,519.76,202.51z M528.51,195.01c0,2.1,0,4.2,0,6.29c2.51,0,4.72,0,6.89,0c0-2.31,0-4.41,0-6.79
		C533.21,194.51,531.11,194.51,528.51,195.01z"/>
	<path class="st3" d="M566.51,202.51c0,0.83,0,1.66,0,2.75c-2.22,0-4.45,0-6.86,0c0-5.71,0-11.49,0-17.16
		c-1.33-1.18-2.64-0.21-4.03-0.78c-0.08,1.53-0.13,2.64-0.19,3.77c-0.7,0.99-1.94-0.08-2.87,0.85c0,4.28,0,8.73,0,13.37
		c-2.73,0-5.29,0-7.96,0c0-7.21,0-14.32,0-21.61c6.12,0,12.22,0,18.59,0c0.97,0.83-0.14,2.32,0.52,3.55
		c0.64,0.6,1.52,0.11,2.54,0.51C566.51,192.84,566.51,197.68,566.51,202.51z"/>
	<path class="st37" d="M566.76,202.51c-0.25-4.83-0.25-9.67-0.25-14.75c0.5-0.25,1-0.25,1.75-0.25c0.25,4.83,0.25,9.67,0.25,14.75
		C568.01,202.51,567.51,202.51,566.76,202.51z"/>
	<path class="st37" d="M590.76,201.51c-0.53-0.12-1.06-0.23-1.06-0.35c-0.06-4.55-0.75-9.12,0.56-13.65c0.25,0,0.75,0,1,0
		c0.25,4.5,0.25,9,0.25,13.75C591.51,201.51,591.01,201.51,590.76,201.51z"/>
	<path class="st2" d="M517.51,189.26c-1.52-0.08-1.18-0.87-0.25-1.75C517.51,188.01,517.51,188.51,517.51,189.26z"/>
	<path class="st2" d="M516.76,203.51c-0.08-0.33,0.08-0.67,0.5-1C517.34,202.84,517.18,203.18,516.76,203.51z"/>
	<path class="st2" d="M520.51,191.26c-0.33,0.08-0.67-0.08-1-0.5C519.84,190.68,520.18,190.84,520.51,191.26z"/>
	<path class="st37" d="M589.76,205.51c-0.08-0.33,0.08-0.67,0.5-1C590.34,204.84,590.18,205.18,589.76,205.51z"/>
	<path class="st37" d="M571.26,186.51c0.08,0.33-0.08,0.67-0.5,1C570.68,187.18,570.84,186.84,571.26,186.51z"/>
	<path class="st2" d="M519.76,187.51c-0.08-0.33,0.08-0.67,0.5-1C520.34,186.84,520.18,187.18,519.76,187.51z"/>
	<path class="st2" d="M517.51,174.26c-0.33,0.08-0.67-0.08-1-0.5C516.84,173.68,517.18,173.84,517.51,174.26z"/>
	<path class="st37" d="M590.51,173.26c-0.33,0.08-0.67-0.08-1-0.5C589.84,172.68,590.18,172.84,590.51,173.26z"/>
	<path class="st38" d="M176.51,167.51c1.37,3.11,4.75,3.51,6.1,6.38c1.18,2.49,4.03,3.64,6.29,5.31c2.49-1.05,3.88-3.51,5.8-5.4
		c2.13-2.1,4.23-4.23,6.45-6.44c3.6,0.27,4.92,3.58,7.18,5.56c2.37,2.07,4.43,4.48,6.82,6.94c2.66-1.71,4.48-4.07,6.58-6.11
		c2.14-2.08,4.15-4.29,6.13-6.35c6.67,2.36,8.99,8.84,13.66,12.55c-0.01,1.74-1.26,2.22-2.02,3.02c-1.83,1.94-3.99,3.61-5.57,5.73
		c-1.52,2.05-3.77,3.08-5.17,5.08c-4.94-4.43-8.97-9.22-13.84-13.26c-0.63,3.48-5.06,3.61-6.06,6.34c-1.22,3.33-4.98,3.5-6.5,6.65
		c4.37,4.35,8.86,8.83,12.9,12.85c-0.23,3.07-2.72,3.36-4.01,4.87c-1.25,1.46-2.34,3.22-3.66,4.4c-1.49,1.33-3.16,2.65-4.71,3.96
		c-0.75-0.08-1.74,0.09-1.98-0.26c-1.62-2.38-4.74-2.99-6.16-5.84c-0.92-1.85-2.71-3.65-5.08-4.36c-0.53-0.16-0.9-0.86-1.65-1.62
		c4.69-4.69,9.22-9.22,13.78-13.78c-1.69-2.88-4.89-3.87-6.29-6.54c-1.51-2.88-5.53-3.27-6.64-6.82c-1.35,3.19-5.35,3.5-6.62,6.82
		c-1.11,2.92-5.55,2.82-6.25,6.37c-2.4,0.02-3.07-2.56-5.09-3.42c-1.84-0.78-2.54-3.56-4.3-5.08c-1.47-1.27-3.44-2.11-4.07-4.46
		c0.3-1.67,1.68-2.69,3.11-3.89c1.56-1.31,3.54-2.46,3.99-4.8c0.08-0.41,0.61-0.86,1.03-1.04c2.06-0.9,3.17-2.74,4.57-4.32
		C175.37,166.43,176.08,166.84,176.51,167.51z"/>
	<path class="st20" d="M335.51,204.51c0,3.5,0,6.49,0,9.97c-7.55,0.06-15.11,0.01-22.18,0.03c-2.46-1.17-1.57-3.07-1.9-4.6
		c-1.09-0.98-2.58,0.13-3.81-0.77c0-6.04,0-12.15,0-18.27c1.06-0.74,2.25-0.21,3.45-0.38c1.2-1.3-0.62-3.78,2.35-4.89
		c3.44,0,7.56,0,11.61,0c2.13-4.47,1.36-9.06,1.5-13.98c2.86-0.23,5.76-0.05,8.99-0.13C335.51,182.46,335.51,193.23,335.51,204.51z
		 M320.01,190.51c-1.11,0.14-2.29-0.34-3.51,0.42c0.06,6.15-0.09,12.37,0.09,18.41c3.55,0,6.67,0,9.92,0c0-6.13,0-12.09-0.01-18.05
		c0-0.14-0.07-0.3-0.16-0.43c-0.09-0.13-0.23-0.23-0.35-0.35C324.33,190.51,322.67,190.51,320.01,190.51z"/>
	<path class="st29" d="M357.51,194.51c1.35-1.17,0.96-2.44,0.83-3.86c-4.47,0-8.91,0-13.52,0c-0.56-1.69-0.28-3.28-0.25-5
		c6.25,0,12.36,0,18.61,0c0.75,0.69,0.27,1.75,0.29,2.68c0.02,1.01,0.86,1.32,1.39,2.09c1.04,0.05,2.15,0.1,3.46,0.16
		c0,7.93,0,15.82,0,23.81c-7.86,0-15.63,0-23.74,0c0-1.53,0-3.1,0-4.58c-1.77-0.71-3.75,0.44-4.91-1.89c0-2.04,0-4.49,0-7.08
		c0.32-0.32,0.79-0.79,1.26-1.26c1.12-0.06,2.24-0.12,3.32-0.17c0.67-1.58-0.51-3.57,2.16-4.9
		C349.45,194.51,353.23,194.51,357.51,194.51z M349.51,202.01c0,2.45,0,4.9,0,7.5c1.8,0,3.27,0.07,4.73-0.02
		c1.43-0.08,2.93,0.42,4.1-0.3c0-3.29,0-6.41,0-9.69c-3.06,0.07-5.96-0.09-8.84,0.11C349.51,200.35,349.51,200.68,349.51,202.01z"/>
	<path class="st23" d="M291.51,175.51c-2.83,0-5.66,0-8.48,0c-0.12,0.11-0.26,0.21-0.35,0.35c-0.08,0.12-0.16,0.28-0.16,0.43
		c-0.01,12.29-0.01,24.58-0.01,37.05c-3.25,0-6.36,0-9.97,0c-0.07-6.06-0.02-12.31-0.03-18.56c-0.01-6.3,0-12.6,0-19.09
		c-2.91,0-5.69,0-8.63,0c-0.66-1.69-0.31-3.28-0.32-5.18c8.9,0,17.67,0,26.7,0.25c0.58,0.42,0.92,0.58,1.25,1
		C291.51,173.18,291.51,174.34,291.51,175.51z"/>
	<path class="st29" d="M373.51,208.51c0-12.6,0-24.71,0-36.91c3.42,0,6.54,0,9.83,0c0,14.28,0,28.5,0,42.81c-3.25,0-6.36,0-9.83,0
		C373.51,212.59,373.51,210.8,373.51,208.51z"/>
	<path class="st38" d="M292.51,208.51c0-7.92,0-15.34,0-22.5c0.61-0.61,0.97-0.96,1.41-1.41c2.35,0,4.79,0,7.18,0
		c0.4,0.4,0.75,0.75,1.26,1.26c0,8.58,0,17.33,0,26.35c-0.27,0.22-0.78,0.64-1.48,1.22c-2.49,0-5.26,0-8.37,0
		C292.51,211.92,292.51,210.46,292.51,208.51z"/>
	<path class="st23" d="M300.51,171.51c0.5,0,0.99,0,1.56,0c0.79,1.16,0.41,2.43,0.29,4c-3.12,0-6.23,0-9.59-0.25
		c-0.25-1.42-0.25-2.58,0-3.75C295.51,171.51,298.01,171.51,300.51,171.51z"/>
	<path class="st37" d="M300.51,171.26c-2.5,0.25-5,0.25-7.75,0.25c-0.13-0.28-0.03-0.81,0.1-0.81
		C295.42,170.59,298,169.98,300.51,171.26z"/>
	<path class="st37" d="M292.26,171.51c0.25,1.17,0.25,2.33,0.25,3.75c0,0.25-0.5,0.25-0.75,0.25c-0.25-1.17-0.25-2.33-0.25-3.75
		C291.51,171.51,292.01,171.51,292.26,171.51z"/>
	<path class="st37" d="M291.51,171.26c-0.33,0.08-0.67-0.08-1-0.5C290.84,170.68,291.18,170.84,291.51,171.26z"/>
	<path class="st39" d="M423.51,36.51c-0.25-1.92,0.14-3.08,1.42-3.9c2.08,0,4.18,0,6.43,0c0,2.86,0,5.64,0,8.65
		c-2.41,0-4.96,0-7.85,0C423.51,39.91,423.51,38.46,423.51,36.51z"/>
	<path class="st28" d="M491.51,49.51c-1.16,0-1.83,0-2.85,0c-0.34-2.55-0.09-5.16-0.14-7.76c-0.05-2.63-0.01-5.27-0.01-8.07
		c2.59,0,5.04,0,7.87,0c0.32,2.38,0.07,4.99,0.11,7.58c0.05,2.64,0.01,5.27,0.01,8.25C494.92,49.51,493.47,49.51,491.51,49.51z"/>
	<path class="st13" d="M457.51,44.51c0-3.82,0-7.14,0-10.87c2.53-0.28,5.1-0.05,7.83-0.15c0,5.28,0,10.38,0,15.91
		c-2.35,0.26-4.93,0.03-7.83,0.14C457.51,47.92,457.51,46.46,457.51,44.51z"/>
	<path class="st39" d="M539.51,37.51c-2.15,0-3.81,0-5.5,0c-1.16-1.11-0.02-2.46-0.8-3.83c2.88,0,5.32,0,7.96,0
		c0.73,0.96,0.27,2.24,0.24,3.39C541.02,37.72,540.47,37.45,539.51,37.51z"/>
	<path class="st32" d="M495.51,75.26c-1.13,0.25-2.27,0.25-3.4,0.25c-1.3-0.87-1.99-1.99-1.43-3.8c1.46,0,3,0,4.83,0
		C495.51,72.82,495.51,73.91,495.51,75.26z"/>
	<path class="st32" d="M490.51,83.76c1.16-0.25,2.33-0.25,2.56-0.25c1.26,0.79,1.95,1.23,2.44,1.54c0,1.75-1.42,2.36-4.68,2.31
		C490.17,86.3,490.65,85.12,490.51,83.76z"/>
	<path class="st18" d="M67.51,43.51c3.83,0,7.15,0,10.45,0c0.75,0.36,0.4,1.17,0.85,1.86c1,0,2.12,0,3.21,0
		c0.26,1.55,1.06,2.35,2.35,2.57c0,1.8,0,3.59,0,5.47c-1.26,0-2.37,0-3.51,0c-0.23-0.59-0.46-1.16-0.76-1.91c-1.05,0-2.17,0-3.21,0
		c-0.27-0.75-0.48-1.33-0.69-1.89c-10.85,0-21.61,0-32.34,0c-0.24,0.67-0.45,1.25-0.64,1.79c-2.54,0-4.99,0-7.4,0
		c-0.54-1.21-0.29-2.34-0.22-3.46c1.96-0.79,2.95-2.53,4.51-4.42C48.8,43.51,57.91,43.51,67.51,43.51z"/>
	<path class="st40" d="M44.51,58.51c-0.73,0.57-0.97,1.14-1.26,1.85c-1.71,0-3.5,0-5.4,0c-0.81-0.89-0.13-2.11-0.33-3.16
		c0.27-0.86,1.02-0.63,1.6-0.78c0.98-0.71-0.13-1.96,0.8-2.81c11,0,22.09,0,33.2,0c0.73,0.81,0.24,2.41,1.75,2.92
		c1.12,0,2.24,0,3.31,0c0.3,1.28,0.83,2.12,2.22,2.23c0,1.11,0,2.22,0,3.4c-1.18,0.85-2.44,0.03-3.58,0.41
		c-0.21-0.81-0.33-1.26-0.45-1.73c-1.45-0.95-3.24,0.29-4.69-0.67c-0.12-0.46-0.24-0.91-0.43-1.67
		C62.55,58.51,53.78,58.51,44.51,58.51z"/>
	<path class="st40" d="M57.51,66.51c-3.83,0-7.15,0-10.48,0c-1.05,0.68-0.13,1.88-0.82,2.84c-2,0-4.11,0-6.5,0
		c-0.43-1.41-0.18-3-0.14-4.56c1.39-0.17,2.01-0.92,2.24-2.18c9.09,0,18.19,0,27.29,0c0.54,0.32,0.37,0.86,0.41,1.38
		c1.02,1.17,2.5,0.06,3.7,0.71c0.51,0.3,0.23,0.86,0.31,1.33c0.69,1.01,1.9,0.07,2.84,0.8c0,1.33,0,2.79,0,4.46
		c-1.47,0-3.04,0-4.63,0c-0.12-0.48-0.22-0.93-0.33-1.39c-1.1-0.96-2.59,0.16-3.76-0.75c-0.08-0.73-0.17-1.52-0.29-2.64
		C64.24,66.51,61.13,66.51,57.51,66.51z"/>
	<path class="st28" d="M151.51,57.51c0,4.82,0,9.14,0,13.79c-2.52,0.5-5.1,0.01-7.83,0.3c0-5.67,0-11.1,0-16.98
		c2.35-0.27,4.92-0.03,7.36-0.12C151.85,55.36,151.36,56.23,151.51,57.51z"/>
	<path class="st28" d="M172.51,69.51c0-5.15,0-9.8,0-14.78c2.51-0.52,5.1-0.01,7.82-0.31c0,5.33,0,10.44,0,15.92
		C177.85,70.44,175.18,70.96,172.51,69.51z"/>
	<path class="st41" d="M822.51,18.51c0.33,0.17,0.67,0.33,1,1c0.13,1.26-0.29,2.09,0.31,2.85c1.38,0.12,2.83,0.18,3.79,1.93
		c0,0.78,0,1.87,0,3.22c1.39,0,2.64,0,3.9,0.25c0,18.67,0,37.09,0,55.33c-1.39,0.94-2.89-0.22-4.13,1.03c0,1.3,0,2.75,0,4.09
		c-1.32,0.76-2.81-0.33-3.87,0.77c0,1.2,0,2.36-0.25,3.52c-38.08,0-75.92,0-113.75-0.25c0-1.34,0-2.42,0-3.75c-1.5,0-2.75,0-4-0.25
		c-0.05-1.93,0.48-3.83-1.75-4.75c-1.01,0-2.13,0-3.25-0.25c0-18.75,0-37.25,0.25-55.75c1.03,0,1.81,0,2.59,0
		c0.68,0,1.22-0.15,1.41-1c1.23-0.86,0.55-2.01,0.75-3c0,0,0-0.5,0.25-0.75c1.08-0.25,1.92-0.25,3-0.25c1.21-1.23,0.56-2.67,1-4
		C747.51,18.51,785.01,18.51,822.51,18.51z M805.51,70.01c0-2.79,0-5.57,0-8.52c6.13,0,11.91,0,17.81,0c0-4.07,0-7.97,0-11.87
		c-0.66-2.08-2.63-0.54-3.66-1.46c-0.06-1.42-0.25-2.85-1.41-3.45c-5.76,0-11.21,0-16.64,0c-0.07,1.32-0.14,2.44-0.2,3.48
		c-1.65,0.79-3.41-0.25-4.75,0.63c0,7.25,0,14.37,0,21.42c1.66,0.69,3.41-0.31,4.85,0.7c0,1.23,0,2.39,0,4.06
		c5.88,1.1,11.8,0.19,17.57,0.52c1-1.68-0.15-3.46,0.76-4.93c1.19-0.07,2.31-0.13,3.45-0.19c0-1.72,0-3.29,0-4.74
		c-1.68,0-3.14,0-4.52,0c-0.68,1.66,0.31,3.41-0.7,4.85C813.84,70.51,809.67,70.51,805.51,70.01z M792.51,54.01
		c0-1.79,0-3.57,0-5.15c-1.49-0.8-2.97,0.3-3.99-0.85c-0.17-1.16,0.38-2.35-0.49-3.54c-4.01,0-8.12,0-12.57,0c0-3.05,0-5.96,0-8.84
		c-3.12,0-5.9,0-8.78,0c0,13.32,0,26.52,0,39.64c7.39,0,14.61,0,22,0c0-1.7,0-3.15,0-4.49c1.32-0.71,2.8,0.38,3.83-0.77
		C792.51,64.98,792.51,59.99,792.51,54.01z M752.51,46.01c0,8.1,0,16.21,0,24.25c-2.88,0-5.45,0-8.15,0c0-8.69,0-17.12,0-25.5
		c-3.06,0-5.96,0-8.69,0c0,8.69,0,17.12,0,25.55c1.31,0.61,2.79-0.45,4.02,0.89c0,1.27,0,2.73,0,4.31c7.47,0,14.76,0,22.05-0.01
		c0.14,0,0.3-0.08,0.43-0.16c0.13-0.09,0.23-0.23,0.19-0.19c0-10.26,0-20.36,0-30.74C758.97,44.85,755.71,43.87,752.51,46.01z
		 M722.01,35.51c-4.11,0-8.23,0-12.62,0c0.33,1.89-0.22,3.5,0.49,5.18c2.95,0,5.73,0,8.63,0c0,11.47,0,22.75,0.01,34.04
		c0,0.15,0.07,0.3,0.15,0.43c0.09,0.14,0.22,0.25,0.15,0.18c2.98,0,5.76,0,8.85,0c0-11.72,0-23.27,0-34.98c2.77,0,5.22,0,7.78,0
		c-0.02-1.75,0.35-3.34-0.25-4.84C730.99,35.51,727,35.51,722.01,35.51z"/>
	<path class="st1" d="M639.51,70.51c0-7.14,0-14.29,0-21.47c1.02-1.22,2.52-0.02,3.89-0.89c0.45-0.48-0.04-1.36,0.11-2.38
		c0.01-1.59,1.03-1.23,1.75-1.24c5.25-0.02,10.5-0.01,16,0.24c0.25,0.75,0.25,1.25,0.25,2c-0.29,2.02,0.97,1.73,2.25,1.75
		c1.03,0.15,1.9-0.34,2.77,0.48c-0.14,7.09,0.19,14.32-0.19,21.52c-1.17,0-2,0-3.08,0c-2.02-0.29-1.73,0.97-1.75,2.25
		c0,1.08,0,1.92-0.25,2.75c-5.42,0-10.58,0-15.75,0c-0.5,0-1,0-1.75-0.25c-0.25-1.67-0.25-3.08-0.25-4.75
		C642.02,70.51,640.76,70.51,639.51,70.51z M652.01,70.51c1.46,0,2.91,0,4.54,0c-0.16-7.23,0.18-14.12-0.2-20.83
		c-2.8,0-5.25,0-7.87,0c0.15,7.06-0.18,13.95,0.2,20.83C649.68,70.51,650.35,70.51,652.01,70.51z"/>
	<path class="st2" d="M670.51,46.51c0-0.5,0-0.99,0-1.91c2.86-0.2,5.76-0.04,8.38-0.1c0.84,0.49,0.56,1.04,0.62,2
		c0,8.28,0,16.05,0,24.1c2.89-0.3,5.48,0.18,8-0.31c0-8.15,0-15.97,0-23.79c0-0.49,0-0.97,0-1.58c1.27-0.83,2.75-0.32,4.13-0.41
		c1.45-0.09,2.92-0.02,4.62,0.23c0.25,10.33,0.25,20.41,0.25,30.75c-7.15,0-14.08,0-21,0c0,0-0.5,0-0.75-0.25
		c-0.25-1.42-0.25-2.58-0.25-4c-0.33-0.42-0.67-0.58-1.25-0.75c-1.02-0.15-1.88,0.33-2.75-0.45
		C670.51,62.29,670.51,54.4,670.51,46.51z"/>
	<path class="st2" d="M635.51,36.26c0,5.73,0,11.21,0,16.7c-1.02,1.24-2.51,0.1-3.69,0.71c-0.64,1.04-0.17,2.22-0.32,3.4
		c-1.43,0.99-3.17,0.01-4.99,0.75c0,5.64,0,11.41,0,17.43c0,0.25-0.5,0.25-1,0.25c-2.33,0-4.17,0-6,0c-0.49,0-0.98,0-1.75,0
		c-0.48-1.82-0.19-3.74-0.24-5.63c-0.05-1.96-0.01-3.91-0.01-6.37c0-2.25,0-4,0-6c-1.49,0-2.74,0-4-0.25c0-1.34,0-2.42,0-3.75
		c-1.5,0-2.75,0-4,0c-0.98,0.08-1-0.61-1-1.29c0-5.46,0-10.91,0-16.3c1.21-0.75,2.39-0.28,4-0.41c1,0,1.5,0,2,0
		c0.99,0.2,2.14-0.48,3,1c0,5.61,0,10.72,0,16.02c3.23-0.08,6.13,0.1,9-0.13c0-5.25,0-10.07,0-14.89c0-0.5,0-0.99,0-1.87
		C629.51,35.62,632.51,34.97,635.51,36.26z"/>
	<path class="st35" d="M709.51,92.76c37.83-0.25,75.67-0.25,113.75-0.25c0.64,1.39-0.29,2.13-1.21,2.95c-37.01,0-74.07,0-111.1,0
		C710.3,94.7,710.55,93.48,709.51,92.76z"/>
	<path class="st35" d="M822.51,18.26c-37.5,0.25-75,0.25-112.75,0.25c-0.25-0.5-0.25-1-0.25-1.5c0.63-0.64,87.63-0.96,111.59-0.41
		C821.57,17.07,822.04,17.54,822.51,18.26z"/>
	<path class="st35" d="M675.51,75.76c6.92-0.25,13.85-0.25,21-0.25c0-10.34,0-20.42,0-30.75c-0.39-2.56,1.84-3.16,2.85-4.67
		c0.67-4.1-0.57-8.41,0.9-12.58c0.25,18.5,0.25,37,0.25,55.75c-2.12-0.42-0.36-2.35-1.25-3.5c-0.64-0.64-1.34-1.34-2.37-2.37
		c-6.94,1.08-14.22,2.21-21.38-0.39C675.51,76.67,675.51,76.34,675.51,75.76z"/>
	<path class="st35" d="M823.76,92.51c-0.25-1.16-0.25-2.33-0.25-3.52c1.06-1.1,2.54-0.01,3.87-0.77c0-1.34,0-2.8,0-4.09
		c1.24-1.26,2.74-0.09,4.13-1.03c0-18.24,0-36.66,0-55.33c0.97,0.22,1.94,0.68,2.95,1.17c0,17.7,0,35.42,0,52.91
		c-1.73,2.32-3.55,4.36-4.89,6.68C828.26,90.8,826.29,91.78,823.76,92.51z"/>
	<path class="st28" d="M687.26,46.51c0.25,7.82,0.25,15.64,0.25,23.79c-2.52,0.5-5.11,0.01-8,0.31c0-8.05,0-15.82,0-23.85
		c0.5-0.25,0.99-0.25,1.49-0.25c1.15,1.77,1.6,3.67,1.55,5.82c-0.12,4.61-0.04,9.22-0.04,13.56c0.48,0.84,1.03,0.55,1.79,0.68
		c0.74-6.68-0.84-13.57,1.71-20.05C686.35,46.51,686.68,46.51,687.26,46.51z"/>
	<path class="st35" d="M674.51,71.51c0,1.17,0,2.33,0,3.75c-2.36,0.72-2.79-1.77-5.21-2.81c-1.5-0.39-3.49,0.37-5.23,2
		c-0.59,0.56-1.06,1.31-2.31,1.05c-0.25-0.83-0.25-1.67,0-2.75c2.02,0.04,1.73-1.22,1.75-2.25c0.83,0,1.66,0,2.83,0
		c0.38-7.21,0.05-14.43,0.19-21.52c-0.87-0.82-1.74-0.33-2.77-0.73c-0.25-0.75-0.25-1.25-0.25-1.75c2.17,0,4.33,0,6.75,0
		c0.25,7.89,0.25,15.78,0.25,23.55c0.87,0.78,1.73,0.31,2.75,0.7C673.84,71.18,674.18,71.34,674.51,71.51z"/>
	<path class="st35" d="M626.26,37.51c0.25,4.82,0.25,9.65,0.25,14.89c-2.87,0.23-5.77,0.05-9,0.13c0-5.29,0-10.41,0-15.77
		c0.82-0.25,1.65-0.25,2.47-0.25c2.38,4.07,1.09,8.7,1.71,12.93c1.53,0.34,1.99-0.71,2.84-1.42c0-3.31,0-6.74,0-9.92
		C625,37.3,625.55,37.57,626.26,37.51z"/>
	<path class="st35" d="M645.51,75.76c5.17-0.25,10.33-0.25,15.75-0.25c0.25,0.49,0.25,0.99,0.25,1.85
		c-2.82-0.23-5.31,1.25-8.24,1.26c-2.79,0.01-5.06-1.71-7.76-1.23C645.51,76.67,645.51,76.34,645.51,75.76z"/>
	<path class="st35" d="M831.51,27.26c-1.26,0.25-2.51,0.25-3.9,0.25c0-1.35,0-2.45,0-3.22c-0.96-1.75-2.41-1.81-3.79-1.93
		c-0.6-0.76-0.18-1.59-0.31-2.6c0.82-0.25,1.65-0.25,2.65-0.25C827.49,22.26,831.1,23.45,831.51,27.26z"/>
	<path class="st35" d="M613.51,57.76c1.26-0.25,2.51-0.25,4-0.25c0,2,0,3.75,0,5.75c-0.47,0.25-0.95,0.25-1.7,0.25
		C615.89,61.36,612.82,60.57,613.51,57.76z"/>
	<path class="st35" d="M700.51,83.76c1.12-0.25,2.24-0.25,3.25-0.25c2.24,0.92,1.71,2.82,1.75,4.75
		C702.73,88.25,701.46,86.3,700.51,83.76z"/>
	<path class="st35" d="M639.51,70.76c1.25-0.25,2.51-0.25,4-0.25c0,1.67,0,3.08,0,4.75c-0.47,0.25-0.94,0.25-1.41,0.25
		c-1.01-0.4-0.29-1.72-1.28-2.27C640.1,72.83,639.21,72.18,639.51,70.76z"/>
	<path class="st35" d="M705.51,88.76c1.25-0.25,2.5-0.25,4-0.25c0,1.33,0,2.41,0,3.75C707.09,92.58,706.06,91.08,705.51,88.76z"/>
	<path class="st35" d="M609.51,53.76c1.25-0.25,2.5-0.25,4-0.25c0,1.33,0,2.41,0,3.75C611.09,57.58,610.06,56.08,609.51,53.76z"/>
	<path class="st35" d="M619.51,75.76c1.83-0.25,3.67-0.25,5.75-0.25c0.25,0.5,0.25,0.99,0.25,1.74c-1.87,0-3.76,0-5.82,0
		C619.3,77.02,619.57,76.47,619.51,75.76z"/>
	<path class="st35" d="M709.26,18.51c0.06,1.33,0.71,2.77-0.5,3.75c-0.58-0.42-0.92-0.58-1.25-0.75
		C707.13,20.07,708.18,19.34,709.26,18.51z"/>
	<path class="st35" d="M661.51,46.51c0-0.5,0-1,0-1.75c0.07-1.52,0.87-1.3,1.69-1.1c0.63,0.72,0.17,1.58,0.06,2.6
		C662.51,46.51,662.01,46.51,661.51,46.51z"/>
	<path class="st35" d="M704.51,26.51c0.06,0.85-0.48,1.01-1.16,1c-0.78-0.01-1.56,0-2.59,0c-0.01-1.8,1.41-0.69,2.75-1
		C704.01,26.51,704.51,26.51,704.51,26.51z"/>
	<path class="st35" d="M614.51,35.26c-0.5,0.25-1,0.25-1.75,0.25c-0.25-0.49-0.25-0.98-0.25-1.61
		C613.72,33.25,614.6,33.13,614.51,35.26z"/>
	<path class="st40" d="M707.26,21.51c0.58,0.17,0.92,0.33,1.25,0.75c-0.83,0.25-1.67,0.25-2.75,0.25
		C705.49,21.39,706.28,21.5,707.26,21.51z"/>
	<path class="st35" d="M705.26,23.51c0.05,0.99,0.73,2.14-0.5,2.75c-0.25-0.25-0.25-0.75-0.25-0.75
		C704.57,24.82,704.27,24.03,705.26,23.51z"/>
	<path class="st40" d="M704.26,25.51c0.25,0,0.25,0.5,0.25,0.75s-0.5,0.25-0.75,0.25C703.68,26.18,703.84,25.84,704.26,25.51z"/>
	<path class="st28" d="M620.51,197.51c0-1.16,0-1.82,0-2.74c2.21,0,4.43,0,6.83,0c0,2,0,4.11,0,6.49c-2.04,0-4.26,0-6.58,0
		C620.18,200.29,620.64,199.12,620.51,197.51z"/>
	<path class="st32" d="M509.51,202.51c-1.5,0-2.49,0-3.88,0c-0.04-1.9-0.09-3.83-0.11-5.75c-0.02-1.97,0-3.94,0-6.08
		c2.59,0,5.04,0,7.89,0c0.04,1.73,0.09,3.65,0.11,5.58c0.02,1.97,0,3.94,0,5.84C512.3,202.84,511.12,202.37,509.51,202.51z"/>
	<path class="st32" d="M505.51,183.51c0-2.82,0-5.15,0-7.87c2.53-0.28,5.1-0.05,7.83-0.15c0,3.94,0,7.72,0,11.91
		c-2.35,0.26-4.92,0.03-7.41,0.12C505.18,186.29,505.64,185.12,505.51,183.51z"/>
	<path class="st13" d="M675.51,195.51c0-2.82,0-5.15,0-7.76c2.18-0.51,4.44-0.09,6.83-0.3c0,4.65,0,9.09,0,13.86
		c-2.02,0.48-4.27,0.05-6.83,0.27C675.51,199.58,675.51,197.79,675.51,195.51z"/>
	<path class="st13" d="M575.76,201.26c-0.25-4.67-0.25-9.1-0.25-13.63c2.36,0,4.47,0,6.79,0c0,4.49,0,9.03,0,13.88
		C580.23,201.51,578.12,201.51,575.76,201.26z"/>
	<path class="st28" d="M528.76,194.76c2.35-0.25,4.45-0.25,6.64-0.25c0,2.38,0,4.48,0,6.79c-2.17,0-4.39,0-6.89,0
		C528.51,199.21,528.51,197.11,528.76,194.76z"/>
	<path class="st39" d="M320.51,190.51c2.16,0,3.82,0,5.48,0c0.12,0.11,0.26,0.21,0.35,0.35c0.08,0.12,0.16,0.28,0.16,0.43
		c0.01,5.96,0.01,11.92,0.01,18.05c-3.26,0-6.37,0-9.92,0c-0.17-6.04-0.03-12.26-0.09-18.41
		C317.72,190.17,318.9,190.64,320.51,190.51z"/>
	<path class="st39" d="M349.51,201.51c0-0.83,0-1.16,0-1.9c2.87-0.21,5.77-0.04,8.84-0.11c0,3.29,0,6.4,0,9.69
		c-1.17,0.73-2.68,0.22-4.1,0.3c-1.46,0.09-2.94,0.02-4.73,0.02C349.51,206.9,349.51,204.46,349.51,201.51z"/>
	<path class="st0" d="M792.51,54.51c0,5.48,0,10.47,0,15.49c-1.03,1.16-2.51,0.06-3.83,0.77c0,1.34,0,2.79,0,4.49
		c-7.39,0-14.6,0-22,0c0-13.12,0-26.32,0-39.64c2.88,0,5.66,0,8.78,0c0,2.88,0,5.79,0,8.84c4.45,0,8.56,0,12.57,0
		c0.87,1.2,0.32,2.39,0.49,3.54c1.02,1.15,2.5,0.05,3.99,0.85C792.51,50.43,792.51,52.22,792.51,54.51z M783.51,53.01
		c0-1.46,0-2.91,0-4.53c-2.91,0.11-5.48-0.13-7.83,0.14c0,7.54,0,14.64,0,21.91c2.73-0.1,5.31,0.13,7.83-0.15
		C783.51,64.64,783.51,59.33,783.51,53.01z"/>
	<path class="st0" d="M752.51,45.51c3.2-1.64,6.46-0.66,9.84-1.1c0,10.38,0,20.48,0,30.74c0.04-0.05-0.05,0.1-0.19,0.19
		c-0.12,0.08-0.28,0.16-0.43,0.16c-7.29,0.01-14.59,0.01-22.05,0.01c0-1.58,0-3.04,0-4.31c-1.23-1.34-2.71-0.28-4.02-0.89
		c0-8.43,0-16.87,0-25.55c2.74,0,5.63,0,8.69,0c0,8.38,0,16.81,0,25.5c2.7,0,5.27,0,8.15,0C752.51,62.22,752.51,54.11,752.51,45.51z
		"/>
	<path class="st0" d="M801.51,74.51c0-1.17,0-2.33,0-3.56c-1.44-1.01-3.19-0.01-4.85-0.7c0-7.05,0-14.16,0-21.42
		c1.34-0.88,3.1,0.15,4.75-0.63c0.06-1.04,0.12-2.16,0.2-3.48c5.43,0,10.87,0,16.64,0c1.16,0.6,1.35,2.03,1.41,3.45
		c1.03,0.92,3-0.63,3.66,1.46c0,3.9,0,7.8,0,11.87c-5.9,0-11.68,0-17.81,0c0,2.94,0,5.73,0,9.02c1.49,1.5,3.16,0.92,4.74,0.97
		c2.74,0.1,5.49,0.03,8.25,0.03c-0.08,1.23,0.28,2.05-0.42,3C812.66,74.51,807.08,74.51,801.51,74.51z M813.01,48.51
		c-2.45,0-4.89,0-7.52,0c0.07,3.23-0.09,6.13,0.1,8.84c3.2,0,5.97,0,9.11,0C813.98,54.3,815.27,51.36,813.01,48.51z"/>
	<path class="st0" d="M722.51,35.51c4.49,0,8.48,0,12.7,0c0.6,1.5,0.23,3.1,0.25,4.84c-2.56,0-5.01,0-7.78,0
		c0,11.71,0,23.26,0,34.98c-3.09,0-5.87,0-8.85,0c0.06,0.07-0.07-0.04-0.15-0.18c-0.08-0.13-0.15-0.29-0.15-0.43
		c-0.01-11.28-0.01-22.57-0.01-34.04c-2.9,0-5.68,0-8.63,0c-0.71-1.68-0.15-3.29-0.49-5.18C713.78,35.51,717.9,35.51,722.51,35.51z"
		/>
	<path class="st42" d="M801.51,74.76c5.57-0.25,11.15-0.25,16.56-0.25c0.7-0.95,0.34-1.77,0.42-3c-2.75,0-5.5,0.07-8.25-0.03
		c-1.58-0.06-3.25,0.53-4.74-0.72c4.16-0.25,8.33-0.25,12.55-0.25c1.02-1.44,0.02-3.19,0.7-4.85c1.38,0,2.83,0,4.52,0
		c0,1.45,0,3.02,0,4.74c-1.14,0.06-2.26,0.13-3.45,0.19c-0.91,1.47,0.24,3.25-0.76,4.93C813.31,75.2,807.39,76.1,801.51,74.76z"/>
	<path class="st39" d="M651.51,70.51c-1.16,0-1.83,0-2.83,0c-0.39-6.88-0.05-13.77-0.2-20.83c2.62,0,5.07,0,7.87,0
		c0.38,6.7,0.04,13.6,0.2,20.83C654.92,70.51,653.47,70.51,651.51,70.51z"/>
	<path class="st39" d="M661.51,46.76c0.5-0.25,1-0.25,1.75-0.25c0.25,0.5,0.25,1,0.25,1.75C662.48,48.49,661.22,48.78,661.51,46.76z
		"/>
	<path class="st32" d="M663.26,70.51c0.23,1.03,0.52,2.29-1.5,2C661.53,71.48,661.24,70.22,663.26,70.51z"/>
	<path class="st32" d="M674.51,71.26c-0.33,0.08-0.67-0.08-1-0.5C673.84,70.68,674.18,70.84,674.51,71.26z"/>
	<path class="st41" d="M783.51,53.51c0,5.82,0,11.14,0,16.87c-2.52,0.29-5.09,0.05-7.83,0.15c0-7.27,0-14.37,0-21.91
		c2.35-0.27,4.92-0.03,7.83-0.14C783.51,50.09,783.51,51.55,783.51,53.51z"/>
	<path class="st43" d="M813.51,48.51c1.76,2.85,0.47,5.79,1.2,8.84c-3.14,0-5.92,0-9.11,0c-0.19-2.71-0.03-5.61-0.1-8.84
		C808.12,48.51,810.56,48.51,813.51,48.51z"/>
</g>
</svg>
